<svg width="105" height="105" viewBox="0 0 105 105" fill="none" xmlns="http://www.w3.org/2000/svg">
<path d="M80.2203 44.156C80.1294 45.3144 79.9931 46.4501 79.8114 47.5857C79.7887 47.6539 79.7887 47.7447 79.7887 47.8129C79.607 48.8804 79.3799 49.9479 79.1073 50.9927C79.0846 51.1063 79.0619 51.2199 79.0165 51.3334C78.7439 52.3555 78.4259 53.3322 78.0852 54.3089C78.0398 54.4452 77.9944 54.5814 77.9262 54.7177C77.5628 55.6717 77.1767 56.6029 76.7678 57.5342C76.6997 57.6932 76.6316 57.8294 76.5634 57.9657C76.1319 58.8743 75.6776 59.7601 75.1779 60.6232C75.0871 60.7595 75.0189 60.9185 74.9281 61.0547C74.4284 61.9178 73.8832 62.7582 73.3154 63.5759C73.2246 63.7122 73.1337 63.8258 73.0429 63.9621C72.4523 64.7797 71.839 65.5747 71.1804 66.347C71.1122 66.4378 71.0214 66.5287 70.9305 66.6195C70.2491 67.4145 69.545 68.1867 68.8182 68.9136C68.7727 68.959 68.7273 69.0044 68.6819 69.0271C62.2086 75.4096 53.5321 79.5661 43.8789 80.2248C46.8316 93.921 59.006 104.21 73.588 104.21C90.3731 104.21 104.001 90.6048 104.001 73.7969C103.978 59.3058 93.8029 47.1769 80.2203 44.156Z" fill="#B1E5DF"/>
<path d="M80.3611 41.1805C80.3611 62.1904 63.803 79.3617 42.9976 80.3157C42.4071 80.3384 41.7938 80.3611 41.1805 80.3611C19.5347 80.3611 2 62.8264 2 41.1805C2 39.2726 2.13628 37.4328 2.40884 35.5931C5.11173 16.6047 21.4426 2 41.1805 2C57.148 2 70.8896 11.5623 76.9995 25.2812" stroke="#61AAA3" stroke-width="3" stroke-miterlimit="10"/>
<path d="M78.6132 29.5513C79.1356 31.2094 79.5445 32.9356 79.8397 34.6845" stroke="#61AAA3" stroke-width="3" stroke-miterlimit="10"/>
<path d="M25.914 50.1069H12.5586C12.5586 44.6784 25.3916 41.7938 25.3916 34.9344C25.3916 31.9362 23.4837 28.8472 18.9865 28.8472C16.5789 28.8472 14.5119 29.7557 13.0583 30.9595" stroke="#61AAA3" stroke-width="3" stroke-miterlimit="10"/>
<path d="M43.4299 44.4059H40.4999M40.4999 44.4059V51.288M40.4999 44.4059H28.1211V42.5434L37.4563 29.1879H40.4999V44.4059Z" stroke="#61AAA3" stroke-width="3" stroke-miterlimit="10"/>
<path d="M56.6016 29.1879H69.7981V31.0504L60.0086 51.5151" stroke="#61AAA3" stroke-width="3" stroke-miterlimit="10"/>
<path d="M54.5099 23.6913L43.4258 58.6926" stroke="#61AAA3" stroke-width="3" stroke-miterlimit="10"/>
</svg>
