<svg width="99" height="99" viewBox="0 0 99 99" fill="none" xmlns="http://www.w3.org/2000/svg">
<path d="M58.5017 47.6874C60.313 46.4137 61.6713 44.596 62.3794 42.4981C63.0876 40.4002 63.1088 38.1311 62.4401 36.0203C61.7713 33.9095 60.4473 32.0667 58.6602 30.7594C56.8732 29.452 54.716 28.7481 52.5018 28.7499H49.8768C49.2502 26.3079 48.0778 24.04 46.4478 22.1167C44.8179 20.1934 42.7729 18.665 40.4668 17.6464C38.1606 16.6279 35.6535 16.1458 33.1341 16.2364C30.6147 16.327 28.1487 16.9879 25.9217 18.1695C23.6947 19.3511 21.7647 21.0225 20.2771 23.0578C18.7896 25.0932 17.7831 27.4395 17.3335 29.9202C16.884 32.4008 17.003 34.9511 17.6817 37.3791C18.3604 39.807 19.581 42.0494 21.2518 43.9374" stroke="#61AAA3" stroke-width="3" stroke-linecap="round" stroke-linejoin="round"/>
<path d="M49.1172 51.9272V56.4411C49.1172 57.0397 48.8794 57.6138 48.4561 58.037C48.0329 58.4603 47.4588 58.6981 46.8602 58.6981H31.0616C30.4631 58.6981 29.889 58.4603 29.4657 58.037C29.0425 57.6138 28.8047 57.0397 28.8047 56.4411V51.9272" stroke="#61AAA3" stroke-width="3" stroke-linecap="round" stroke-linejoin="round"/>
<path d="M33.3164 46.2847L38.9588 51.927L44.6011 46.2847" stroke="#61AAA3" stroke-width="3" stroke-linecap="round" stroke-linejoin="round"/>
<path d="M38.9609 51.9269V38.3853" stroke="#61AAA3" stroke-width="3" stroke-linecap="round" stroke-linejoin="round"/>
<path d="M75.7578 41.7402C75.0888 50.5854 71.2566 58.8938 64.9626 65.1445C58.6686 71.3952 50.334 75.1701 41.4844 75.778C42.5729 80.8019 44.9925 85.4405 48.4897 89.208C51.9869 92.9754 56.4329 95.733 61.362 97.1917C66.2911 98.6505 71.5218 98.7568 76.506 97.4995C81.4903 96.2421 86.0447 93.6675 89.6921 90.0452C93.3394 86.4229 95.9454 81.8864 97.2371 76.9109C98.5288 71.9354 98.4586 66.7041 97.0339 61.7651C95.6091 56.8261 92.8823 52.3611 89.1391 48.838C85.3959 45.3149 80.774 42.8634 75.7578 41.7402Z" fill="#B1E5DF"/>
<path d="M2.26366 43.3467C1.13059 33.9105 3.67694 24.4006 9.37358 16.7931C15.0702 9.18564 23.4791 4.06564 32.8527 2.49709L34.5449 2.26146C39.3686 1.68457 44.2586 2.06452 48.9353 3.37955C53.6119 4.69458 57.9834 6.91889 61.7994 9.92519C65.6155 12.9315 68.8013 16.6608 71.1746 20.8997C73.5478 25.1385 75.0619 29.8038 75.6302 34.6284C75.8432 36.3764 75.9291 38.1376 75.8873 39.898C75.7013 47.9152 72.9122 55.6544 67.9409 61.9471C62.9697 68.2398 56.0862 72.7444 48.3297 74.7809C40.5731 76.8173 32.3646 76.2751 24.9433 73.2361C17.522 70.1971 11.2908 64.8262 7.19046 57.9344" stroke="#61AAA3" stroke-width="3" stroke-miterlimit="10"/>
<path d="M5.19804 54.0575C4.52516 52.5401 3.95271 50.9801 3.48438 49.3877" stroke="#61AAA3" stroke-width="3" stroke-miterlimit="10"/>
</svg>
