<svg width="103" height="104" viewBox="0 0 103 104" fill="none" xmlns="http://www.w3.org/2000/svg">
<path d="M72.387 103.293C89.2556 103.293 102.93 89.6178 102.93 72.7492C102.93 55.8806 89.2556 42.2059 72.387 42.2059C55.5184 42.2059 41.8438 55.8806 41.8438 72.7492C41.8438 89.6178 55.5184 103.293 72.387 103.293Z" fill="#B1E5DF"/>
<path d="M32.2644 22.4064C31.6485 21.0834 31.0098 19.806 30.3711 18.5742" stroke="#61AAA3" stroke-width="3" stroke-miterlimit="10"/>
<path d="M28.3624 14.9701C21.4965 3.29111 13.6724 -2.89052 9.70337 6.75833C8.0382 10.8414 5.93963 21.243 8.56284 39.902C8.56284 39.902 0.442341 45.3081 2.26718 60.249C4.02359 74.4828 24.7812 74.8249 37.0532 62.4616L40.9994 53.2006C40.452 45.3766 37.9429 36.1155 34.4985 27.6071" stroke="#61AAA3" stroke-width="3" stroke-miterlimit="10"/>
<path d="M41.0222 53.2006C41.0222 53.2006 55.7578 32.0096 67.6421 22.1554C95.8587 -1.20254 55.8946 56.8046 55.8946 56.8046C56.8755 65.4042 47.2951 77.95 41.4556 78.9993C32.8104 80.5276 37.0988 62.4844 37.0988 62.4844L41.0222 53.2006Z" fill="white" stroke="#61AAA3" stroke-width="3" stroke-miterlimit="10"/>
</svg>
