<svg width="99" height="98" viewBox="0 0 99 98" fill="none" xmlns="http://www.w3.org/2000/svg">
<path d="M70.109 97.3509C85.946 97.3509 98.7845 84.5124 98.7845 68.6754C98.7845 52.8384 85.946 40 70.109 40C54.272 40 41.4336 52.8384 41.4336 68.6754C41.4336 84.5124 54.272 97.3509 70.109 97.3509Z" fill="#B1E5DF"/>
<path d="M16.4378 10.0021C31.9616 -2.3099 54.3373 -0.147265 67.2274 14.6485C67.5914 15.0768 67.9554 15.505 68.3194 15.9547C80.9954 31.9281 78.3403 55.1603 62.3454 67.8577C60.9536 68.9711 59.4976 69.9561 57.9773 70.834C42.3679 79.977 22.0049 76.4654 10.4424 61.9051C1.08525 50.107 0.0788776 34.3691 6.63099 21.8216" fill="white"/>
<path d="M16.4378 10.0021C31.9616 -2.3099 54.3373 -0.147265 67.2274 14.6485C67.5914 15.0768 67.9554 15.505 68.3194 15.9547C80.9954 31.9281 78.3403 55.1603 62.3454 67.8577C60.9536 68.9711 59.4976 69.9561 57.9773 70.834C42.3679 79.977 22.0049 76.4654 10.4424 61.9051C1.08525 50.107 0.0788776 34.3691 6.63099 21.8216" stroke="#61AAA3" stroke-width="3" stroke-miterlimit="10"/>
<path d="M8.87891 18.1172C9.79963 16.7683 10.8274 15.4621 11.9408 14.2202Z" fill="white"/>
<path d="M8.87891 18.1172C9.79963 16.7683 10.8274 15.4621 11.9408 14.2202" stroke="#61AAA3" stroke-width="3" stroke-miterlimit="10"/>
<path d="M47.434 60.5H31.434C22.194 60.5 20.474 56.2 20.034 52.02L18.534 36C18.314 33.9 18.254 30.8 20.334 28.48C22.134 26.48 25.114 25.52 29.434 25.52H49.434C53.774 25.52 56.754 26.5 58.534 28.48C60.614 30.8 60.554 33.9 60.334 36.02L58.834 52C58.394 56.2 56.674 60.5 47.434 60.5ZM29.434 28.5C26.054 28.5 23.734 29.16 22.554 30.48C21.574 31.56 21.254 33.22 21.514 35.7L23.014 51.72C23.354 54.88 24.214 57.5 31.434 57.5H47.434C54.634 57.5 55.514 54.88 55.854 51.7L57.354 35.72C57.614 33.22 57.294 31.56 56.314 30.48C55.134 29.16 52.814 28.5 49.434 28.5H29.434Z" fill="#61AAA3"/>
<path d="M47.4336 28.5C46.6136 28.5 45.9336 27.82 45.9336 27V25.4C45.9336 21.84 45.9336 20.5 41.0336 20.5H37.8336C32.9336 20.5 32.9336 21.84 32.9336 25.4V27C32.9336 27.82 32.2536 28.5 31.4336 28.5C30.6136 28.5 29.9336 27.82 29.9336 27V25.4C29.9336 21.88 29.9336 17.5 37.8336 17.5H41.0336C48.9336 17.5 48.9336 21.88 48.9336 25.4V27C48.9336 27.82 48.2536 28.5 47.4336 28.5Z" fill="#61AAA3"/>
<path d="M39.4336 48.5C33.9336 48.5 33.9336 45.1 33.9336 43.06V41C33.9336 38.18 34.6136 37.5 37.4336 37.5H41.4336C44.2536 37.5 44.9336 38.18 44.9336 41V43C44.9336 45.08 44.9336 48.5 39.4336 48.5ZM36.9336 40.5C36.9336 40.66 36.9336 40.84 36.9336 41V43.06C36.9336 45.12 36.9336 45.5 39.4336 45.5C41.9336 45.5 41.9336 45.18 41.9336 43.04V41C41.9336 40.84 41.9336 40.66 41.9336 40.5C41.7736 40.5 41.5936 40.5 41.4336 40.5H37.4336C37.2736 40.5 37.0936 40.5 36.9336 40.5Z" fill="#61AAA3"/>
<path d="M43.4326 44.54C42.6926 44.54 42.0326 43.98 41.9526 43.22C41.8526 42.4 42.4326 41.64 43.2526 41.54C48.5326 40.88 53.5926 38.88 57.8526 35.78C58.5126 35.28 59.4526 35.44 59.9526 36.12C60.4326 36.78 60.2926 37.72 59.6126 38.22C54.9326 41.62 49.4126 43.8 43.6126 44.54C43.5526 44.54 43.4926 44.54 43.4326 44.54Z" fill="#61AAA3"/>
<path d="M35.435 44.56C35.375 44.56 35.315 44.56 35.255 44.56C29.775 43.94 24.435 41.9401 19.815 38.7801C19.135 38.3201 18.955 37.3801 19.415 36.7C19.875 36.02 20.815 35.84 21.495 36.3C25.715 39.18 30.575 41 35.575 41.58C36.395 41.68 36.995 42.42 36.895 43.24C36.835 44 36.195 44.56 35.435 44.56Z" fill="#61AAA3"/>
</svg>
