<svg width="99" height="99" viewBox="0 0 99 99" fill="none" xmlns="http://www.w3.org/2000/svg">
<path d="M69.3785 98.37C85.2155 98.37 98.054 85.5316 98.054 69.6946C98.054 53.8576 85.2155 41.0192 69.3785 41.0192C53.5415 41.0192 40.7031 53.8576 40.7031 69.6946C40.7031 85.5316 53.5415 98.37 69.3785 98.37Z" fill="#B1E5DF"/>
<path d="M75.5673 38.9418C75.5673 58.7512 59.9553 74.9414 40.3386 75.8408C39.7818 75.8623 39.2037 75.8837 38.6254 75.8837C18.2164 75.8837 1.68359 59.3509 1.68359 38.9418C1.68359 37.1429 1.81207 35.4083 2.06906 33.6736C4.61751 15.7702 20.0153 2 38.6254 2C59.0345 2 75.5673 18.5542 75.5673 38.9418Z" fill="white"/>
<path d="M75.5673 38.9418C75.5673 58.7512 59.9553 74.9414 40.3386 75.8408C39.7818 75.8623 39.2037 75.8837 38.6254 75.8837C18.2164 75.8837 1.68359 59.3509 1.68359 38.9418C1.68359 37.1429 1.81207 35.4083 2.06906 33.6736C4.61751 15.7702 20.0153 2 38.6254 2C53.6806 2 66.637 11.0159 72.3977 23.9509" stroke="#61AAA3" stroke-width="3" stroke-miterlimit="10"/>
<path d="M73.918 27.9771C74.4105 29.5404 74.796 31.168 75.0744 32.817" stroke="#61AAA3" stroke-width="3" stroke-miterlimit="10"/>
<path d="M23.349 23.75H54.0156C55.0323 23.75 56.0073 24.1539 56.7262 24.8728C57.4451 25.5916 57.849 26.5667 57.849 27.5833V39.0833C57.849 44.1666 55.8296 49.0418 52.2352 52.6362C48.6407 56.2307 43.7656 58.25 38.6823 58.25C36.1653 58.25 33.6729 57.7542 31.3475 56.791C29.0221 55.8278 26.9092 54.416 25.1294 52.6362C21.535 49.0418 19.5156 44.1666 19.5156 39.0833V27.5833C19.5156 26.5667 19.9195 25.5916 20.6384 24.8728C21.3573 24.1539 22.3323 23.75 23.349 23.75V23.75Z" stroke="#61AAA3" stroke-width="3" stroke-linecap="round" stroke-linejoin="round"/>
<path d="M31.0156 37.1666L38.6823 44.8333L46.349 37.1666" stroke="#61AAA3" stroke-width="3" stroke-linecap="round" stroke-linejoin="round"/>
</svg>
