<svg width="96" height="97" viewBox="0 0 96 97" fill="none" xmlns="http://www.w3.org/2000/svg">
<circle cx="69" cy="70" r="27" fill="#B1E5DF"/>
<path d="M59.0287 34.0527H18.7256C16.8924 34.0527 15.4062 35.5388 15.4062 37.3721V74.1202C15.4062 75.9534 16.8924 77.4396 18.7256 77.4396H59.0287C60.8619 77.4396 62.348 75.9534 62.348 74.1202V37.3721C62.348 35.5388 60.8619 34.0527 59.0287 34.0527Z" stroke="white" stroke-width="3" stroke-miterlimit="10"/>
<path d="M62.348 48.5288H15.4062V62.9839H62.348V48.5288Z" stroke="white" stroke-width="3" stroke-miterlimit="10"/>
<path d="M67.4652 24.8225C66.4551 21.5913 64.4987 18.7374 61.8492 16.63C59.1997 14.5226 55.9789 13.2586 52.6032 13.0014C50.6392 9.30581 47.6025 6.29122 43.8927 4.35416C40.1829 2.41709 35.9737 1.64827 31.8186 2.14882C27.6636 2.64937 23.7574 4.39585 20.6137 7.15854C17.4701 9.92123 15.2362 13.5707 14.2061 17.6271C10.6857 18.24 7.50802 20.1116 5.26481 22.8931C3.0216 25.6747 1.86574 29.1766 2.01243 32.747C2.15912 36.3174 3.59836 39.7127 6.06218 42.3009C8.52601 44.889 11.8465 46.4936 15.4053 46.8157V37.3931C15.4276 36.522 15.7895 35.6941 16.4136 35.086C17.0377 34.4779 17.8747 34.1377 18.746 34.138H59.0277C59.8933 34.1434 60.7226 34.4868 61.3386 35.0949C61.9547 35.703 62.3089 36.5276 62.3256 37.3931V46.8585H64.0602H65.495C68.1059 46.6181 70.5497 45.4694 72.4007 43.6123C74.2516 41.7553 75.3924 39.3078 75.6243 36.6961C75.8561 34.0845 75.1644 31.4742 73.6695 29.3202C72.1747 27.1661 69.9715 25.6048 67.4438 24.9082L67.4652 24.8225Z" stroke="white" stroke-width="3" stroke-miterlimit="10"/>
<path d="M26.2844 41.0337H21.2305" stroke="white" stroke-width="3" stroke-miterlimit="10"/>
<path d="M32.9446 41.0337H27.8906" stroke="white" stroke-width="3" stroke-miterlimit="10"/>
<path d="M40.4602 41.0337H35.4062" stroke="white" stroke-width="3" stroke-miterlimit="10"/>
</svg>
