<svg width="105" height="105" viewBox="0 0 105 105" fill="none" xmlns="http://www.w3.org/2000/svg">
<path d="M74.1041 104.647C90.9727 104.647 104.647 90.9727 104.647 74.1041C104.647 57.2355 90.9727 43.5609 74.1041 43.5609C57.2355 43.5609 43.5608 57.2355 43.5608 74.1041C43.5608 90.9727 57.2355 104.647 74.1041 104.647Z" fill="#B1E5DF"/>
<path d="M80.4682 37.8125C80.4682 32.3152 76.7273 27.7075 71.6862 26.316C69.5192 19.4044 63.3147 14.2949 55.8557 13.7246C52.1375 6.74459 44.7925 2 36.3526 2C26.0423 2 17.3971 9.09408 14.9564 18.6517C7.5886 19.9519 2 26.3616 2 34.1172C2 42.7852 9.02564 49.8337 17.7165 49.8337C17.9902 49.8337 68.0821 49.788 68.0821 49.788C68.219 49.788 69.6104 49.7196 69.6104 49.7196C75.678 49.1265 80.4682 44.0626 80.4682 37.8125Z" fill="white" stroke="#61AAA3" stroke-width="3" stroke-miterlimit="10"/>
<path d="M62.6985 82.3616H19.7919C17.8302 82.3616 16.2563 80.7648 16.2563 78.8259V39.6831C16.2563 37.7214 17.853 36.1475 19.7919 36.1475H62.6985C64.6602 36.1475 66.2342 37.7442 66.2342 39.6831V78.8259C66.2342 80.7876 64.6374 82.3616 62.6985 82.3616Z" fill="white" stroke="#61AAA3" stroke-width="3" stroke-miterlimit="10"/>
<path d="M66.2344 51.5446H16.2337V66.9417H66.2344V51.5446Z" fill="white" stroke="#61AAA3" stroke-width="3" stroke-miterlimit="10"/>
<path d="M27.7988 43.5836H22.4155" stroke="#61AAA3" stroke-width="3" stroke-miterlimit="10"/>
<path d="M34.8928 43.5836H29.5095" stroke="#61AAA3" stroke-width="3" stroke-miterlimit="10"/>
<path d="M42.8993 43.5836H37.516" stroke="#61AAA3" stroke-width="3" stroke-miterlimit="10"/>
</svg>
