<svg width="89" height="99" viewBox="0 0 89 99" fill="none" xmlns="http://www.w3.org/2000/svg">
<path d="M66.0876 41.7349C64.7172 59.978 50.1141 74.4954 31.8281 75.7588C34.6117 88.6703 46.0886 98.37 59.8352 98.37C75.6588 98.37 88.5061 85.5441 88.5061 69.6991C88.4847 56.0168 78.892 44.5827 66.0876 41.7349Z" fill="#B1E5DF"/>
<path d="M16.0042 10.0021C31.528 -2.3099 53.9037 -0.147265 66.7938 14.6485C67.1578 15.0768 67.5218 15.505 67.8858 15.9547C80.5618 31.9281 77.9067 55.1603 61.9118 67.8577C60.52 68.9711 59.064 69.9561 57.5437 70.834C41.9343 79.977 21.5713 76.4654 10.0088 61.9051C0.651652 50.107 -0.354716 34.3691 6.1974 21.8216" fill="white"/>
<path d="M16.0042 10.0021C31.528 -2.3099 53.9037 -0.147265 66.7938 14.6485C67.1578 15.0768 67.5218 15.505 67.8858 15.9547C80.5618 31.9281 77.9067 55.1603 61.9118 67.8577C60.52 68.9711 59.064 69.9561 57.5437 70.834C41.9343 79.977 21.5713 76.4654 10.0088 61.9051C0.651652 50.107 -0.354716 34.3691 6.1974 21.8216" stroke="#61AAA3" stroke-width="3" stroke-miterlimit="10"/>
<path d="M8.44531 18.1172C9.36603 16.7683 10.3938 15.4621 11.5072 14.2202L8.44531 18.1172Z" fill="white"/>
<path d="M8.44531 18.1172C9.36603 16.7683 10.3938 15.4621 11.5072 14.2202" stroke="#61AAA3" stroke-width="3" stroke-miterlimit="10"/>
<path d="M39.0938 59.5C31.0938 59.5 24.5938 53.76 24.5938 46.7V39.3C24.5938 38.48 25.2738 37.8 26.0938 37.8C26.9137 37.8 27.5938 38.48 27.5938 39.3C27.5938 44.54 32.5338 48.5 39.0938 48.5C45.6537 48.5 50.5938 44.54 50.5938 39.3C50.5938 38.48 51.2738 37.8 52.0938 37.8C52.9137 37.8 53.5938 38.48 53.5938 39.3V46.7C53.5938 53.76 47.0938 59.5 39.0938 59.5ZM27.5938 46.92C27.7338 52.22 32.8337 56.5 39.0938 56.5C45.3538 56.5 50.4538 52.22 50.5938 46.92C47.9937 49.74 43.8738 51.5 39.0938 51.5C34.3137 51.5 30.2137 49.74 27.5938 46.92Z" fill="#61AAA3"/>
<path d="M39.0938 41.5C33.5737 41.5 28.6137 39.02 26.1937 35.02C25.1537 33.32 24.5938 31.34 24.5938 29.3C24.5938 25.86 26.1338 22.62 28.9138 20.18C31.6338 17.8 35.2537 16.5 39.0938 16.5C42.9338 16.5 46.5337 17.8 49.2737 20.16C52.0537 22.62 53.5938 25.86 53.5938 29.3C53.5938 31.34 53.0338 33.3 51.9938 35.02C49.5738 39.02 44.6138 41.5 39.0938 41.5ZM39.0938 19.5C35.9738 19.5 33.0538 20.54 30.8738 22.46C28.7538 24.3 27.5938 26.74 27.5938 29.3C27.5938 30.8 27.9937 32.2 28.7537 33.46C30.6537 36.58 34.6138 38.5 39.0938 38.5C43.5737 38.5 47.5338 36.56 49.4338 33.46C50.2138 32.2 50.5938 30.8 50.5938 29.3C50.5938 26.74 49.4338 24.3 47.2938 22.42C45.1138 20.54 42.2137 19.5 39.0938 19.5Z" fill="#61AAA3"/>
<path d="M39.0938 51.5C30.8337 51.5 24.5938 46.26 24.5938 39.3V29.3C24.5938 22.24 31.0938 16.5 39.0938 16.5C42.9338 16.5 46.5337 17.8 49.2737 20.16C52.0537 22.62 53.5938 25.86 53.5938 29.3V39.3C53.5938 46.26 47.3538 51.5 39.0938 51.5ZM39.0938 19.5C32.7537 19.5 27.5938 23.9 27.5938 29.3V39.3C27.5938 44.54 32.5338 48.5 39.0938 48.5C45.6537 48.5 50.5938 44.54 50.5938 39.3V29.3C50.5938 26.74 49.4338 24.3 47.2938 22.42C45.1138 20.54 42.2137 19.5 39.0938 19.5Z" fill="#61AAA3"/>
</svg>
