<svg width="104" height="104" viewBox="0 0 104 104" fill="none" xmlns="http://www.w3.org/2000/svg">
<path d="M73.6052 43.155C73.537 43.155 73.4689 43.155 73.4235 43.155C67.93 50.5134 59.1676 55.3134 49.2701 55.3586C46.092 59.6152 43.9808 64.7095 43.3906 70.2792L46.8411 70.0302L49.0885 70.483L51.245 72.8151V75.9622L50.0419 77.7961L48.2032 78.7697L43.7765 79.2226C46.4779 93.1922 58.8043 103.766 73.6052 103.766C90.3809 103.766 104.001 90.2036 104.001 73.449C104.001 56.7171 90.4036 43.155 73.6052 43.155Z" fill="#B1E5DF"/>
<path d="M25.9662 36.4037L26.216 36.6308C27.9646 38.2204 28.0781 40.9228 26.4885 42.6714L28.4415 40.5367C30.0311 38.7882 32.7334 38.6746 34.482 40.2642L34.7318 40.4913C36.4804 42.0809 36.5939 44.7833 35.0043 46.5318L37.3887 43.943C38.9783 42.1945 41.6807 42.0809 43.4292 43.6705L43.679 43.8976C45.4276 45.4872 45.5411 48.1896 43.9515 49.9381L54.4884 38.4248C56.078 36.6762 58.7803 36.5627 60.5289 38.1523L60.7787 38.3794C62.5273 39.969 62.6408 42.6713 61.0512 44.4199L36.7074 70.9891L47.2897 70.2624C49.6514 70.1035 51.6952 71.8748 51.8542 74.2365L51.8769 74.5771C52.0358 76.9388 50.2646 78.9826 47.9028 79.1416C47.9028 79.1416 20.993 81.3216 19.3807 81.2535C15.2477 81.0945 11.1374 79.5276 7.86736 76.5073C0.963905 70.1943 0.100972 59.7483 5.55107 52.4134C5.71003 52.1636 5.86899 51.9138 6.09608 51.6867L19.9257 36.5854C21.5153 34.9277 24.2176 34.8141 25.9662 36.4037Z" stroke="#61AAA3" stroke-width="3" stroke-miterlimit="10"/>
<path d="M33.2773 61.6332L45.6309 48.1442" stroke="#61AAA3" stroke-width="3" stroke-miterlimit="10"/>
<path d="M26.7148 55.6153L35.7075 45.7824" stroke="#61AAA3" stroke-width="3" stroke-miterlimit="10"/>
<path d="M20.1523 49.5975L27.0331 42.0809" stroke="#61AAA3" stroke-width="3" stroke-miterlimit="10"/>
<path d="M28.5886 40.4005C26.7719 36.8125 25.75 32.7476 25.75 28.4557C25.75 27.184 25.8408 25.9123 26.0225 24.686C27.8619 11.8556 38.8756 2 52.2057 2C62.9923 2 72.2802 8.44927 76.3905 17.7144" stroke="#61AAA3" stroke-width="3" stroke-miterlimit="10"/>
<path d="M78.6588 28.4329C78.6588 42.6259 67.4634 54.2073 53.4294 54.8659C53.0206 54.8886 52.6346 54.8886 52.2031 54.8886" stroke="#61AAA3" stroke-width="3" stroke-miterlimit="10"/>
<path d="M77.457 20.5757C77.7977 21.6884 78.0929 22.8466 78.2745 24.0275" stroke="#61AAA3" stroke-width="3" stroke-miterlimit="10"/>
<path d="M39.9023 26.7979L49.1902 36.0858L64.4959 20.7801" stroke="#61AAA3" stroke-width="3" stroke-miterlimit="10"/>
</svg>
