<svg width="99" height="99" viewBox="0 0 99 99" fill="none" xmlns="http://www.w3.org/2000/svg">
<path d="M69.3785 98.37C85.2155 98.37 98.054 85.5316 98.054 69.6946C98.054 53.8576 85.2155 41.0192 69.3785 41.0192C53.5415 41.0192 40.7031 53.8576 40.7031 69.6946C40.7031 85.5316 53.5415 98.37 69.3785 98.37Z" fill="#B1E5DF"/>
<path d="M75.5673 38.9418C75.5673 58.7512 59.9553 74.9414 40.3386 75.8408C39.7818 75.8623 39.2037 75.8837 38.6254 75.8837C18.2164 75.8837 1.68359 59.3509 1.68359 38.9418C1.68359 37.1429 1.81207 35.4083 2.06906 33.6736C4.61751 15.7702 20.0153 2 38.6254 2C59.0345 2 75.5673 18.5542 75.5673 38.9418Z" fill="white"/>
<path d="M75.5673 38.9418C75.5673 58.7512 59.9553 74.9414 40.3386 75.8408C39.7818 75.8623 39.2037 75.8837 38.6254 75.8837C18.2164 75.8837 1.68359 59.3509 1.68359 38.9418C1.68359 37.1429 1.81207 35.4083 2.06906 33.6736C4.61751 15.7702 20.0153 2 38.6254 2C53.6806 2 66.637 11.0159 72.3977 23.9509" stroke="#61AAA3" stroke-width="3" stroke-miterlimit="10"/>
<path d="M73.918 27.9771C74.4105 29.5404 74.796 31.168 75.0744 32.817" stroke="#61AAA3" stroke-width="3" stroke-miterlimit="10"/>
<path d="M56.7242 39.774C55.9167 39.774 55.2367 39.1577 55.1305 38.3502C54.6205 33.5477 52.028 29.1915 48.033 26.429C47.3105 25.919 47.1405 24.9415 47.6292 24.219C48.1392 23.4965 49.138 23.3265 49.8392 23.8152C54.5992 27.109 57.6592 32.294 58.2755 38.0102C58.3605 38.8815 57.7442 39.6677 56.8517 39.774C56.8305 39.774 56.7667 39.774 56.7242 39.774Z" fill="#61AAA3"/>
<path d="M20.324 39.8801C20.2603 39.8801 20.2178 39.8801 20.154 39.8801C19.2828 39.7738 18.6453 38.9876 18.7303 38.1163C19.304 32.4001 22.3428 27.2363 27.039 23.9001C27.7615 23.3901 28.7603 23.5601 29.2703 24.2826C29.7803 25.0051 29.6103 26.0038 28.8878 26.5138C24.9353 29.2976 22.3853 33.6538 21.8965 38.4563C21.8328 39.2638 21.1315 39.8801 20.324 39.8801Z" fill="#61AAA3"/>
<path d="M38.5337 60.0462C35.3887 60.0462 32.3924 59.3237 29.5874 57.9212C28.8012 57.5174 28.4824 56.5612 28.8862 55.7749C29.2899 54.9887 30.2462 54.6699 31.0324 55.0737C35.6224 57.3899 41.1474 57.4324 45.7799 55.2012C46.5662 54.8187 47.5224 55.1587 47.9049 55.9449C48.2874 56.7312 47.9474 57.6874 47.1612 58.0699C44.4412 59.3874 41.5512 60.0462 38.5337 60.0462Z" fill="#61AAA3"/>
<path d="M38.5325 29.9347C34.3888 29.9347 31.0312 26.5773 31.0312 22.4335C31.0312 18.2898 34.3888 14.9323 38.5325 14.9323C42.6763 14.9323 46.0338 18.2898 46.0338 22.4335C46.0338 26.5773 42.655 29.9347 38.5325 29.9347ZM38.5325 18.141C36.1525 18.141 34.2188 20.0748 34.2188 22.4548C34.2188 24.8348 36.1525 26.7685 38.5325 26.7685C40.9125 26.7685 42.8463 24.8348 42.8463 22.4548C42.8463 20.0748 40.8913 18.141 38.5325 18.141Z" fill="#61AAA3"/>
<path d="M23.1692 55.924C19.0255 55.924 15.668 52.5665 15.668 48.4228C15.668 44.3003 19.0255 40.9215 23.1692 40.9215C27.313 40.9215 30.6705 44.279 30.6705 48.4228C30.6705 52.5453 27.313 55.924 23.1692 55.924ZM23.1692 44.109C20.7892 44.109 18.8555 46.0428 18.8555 48.4228C18.8555 50.8028 20.7892 52.7365 23.1692 52.7365C25.5492 52.7365 27.483 50.8028 27.483 48.4228C27.483 46.0428 25.5492 44.109 23.1692 44.109Z" fill="#61AAA3"/>
<path d="M53.6419 55.924C49.4981 55.924 46.1406 52.5665 46.1406 48.4228C46.1406 44.3003 49.4981 40.9215 53.6419 40.9215C57.7856 40.9215 61.1431 44.279 61.1431 48.4228C61.1219 52.5453 57.7644 55.924 53.6419 55.924ZM53.6419 44.109C51.2619 44.109 49.3281 46.0428 49.3281 48.4228C49.3281 50.8028 51.2619 52.7365 53.6419 52.7365C56.0219 52.7365 57.9556 50.8028 57.9556 48.4228C57.9344 46.0428 56.0219 44.109 53.6419 44.109Z" fill="#61AAA3"/>
</svg>
