<svg width="105" height="105" viewBox="0 0 105 105" fill="none" xmlns="http://www.w3.org/2000/svg">
<path d="M74.104 104.67C90.9726 104.67 104.647 90.9954 104.647 74.1268C104.647 57.2582 90.9726 43.5835 74.104 43.5835C57.2354 43.5835 43.5607 57.2582 43.5607 74.1268C43.5607 90.9954 57.2354 104.67 74.104 104.67Z" fill="#B1E5DF"/>
<path d="M5.05661 82.4071H68.3102C69.9982 82.4071 71.3668 81.0385 71.3668 79.3505V62.9726C71.3668 61.2846 69.9982 59.916 68.3102 59.916H5.05661C3.36863 59.916 2 61.2846 2 62.9726V79.3505C2 81.0157 3.36863 82.4071 5.05661 82.4071Z" fill="white" stroke="#61AAA3" stroke-width="3" stroke-miterlimit="10"/>
<path d="M5.05661 53.4605H68.3102C69.9982 53.4605 71.3668 52.0919 71.3668 50.4039V34.026C71.3668 32.338 69.9982 30.9694 68.3102 30.9694H5.05661C3.36863 30.9694 2 32.338 2 34.026V50.4039C2 52.0919 3.36863 53.4605 5.05661 53.4605Z" fill="white" stroke="#61AAA3" stroke-width="3" stroke-miterlimit="10"/>
<path d="M9.64154 2H5.07944C3.39146 2 2.02283 3.36866 2.02283 5.05664V21.4346C2.02283 23.1226 3.39146 24.4912 5.07944 24.4912H68.333C70.021 24.4912 71.3896 23.1226 71.3896 21.4346V5.05664C71.3896 3.36866 70.021 2 68.333 2H23.3279" fill="white"/>
<path d="M9.64154 2H5.07944C3.39146 2 2.02283 3.36866 2.02283 5.05664V21.4346C2.02283 23.1226 3.39146 24.4912 5.07944 24.4912H68.333C70.021 24.4912 71.3896 23.1226 71.3896 21.4346V5.05664C71.3896 3.36866 70.021 2 68.333 2H23.3279" stroke="#61AAA3" stroke-width="3" stroke-miterlimit="10"/>
<path d="M17.8305 2H13.4052" stroke="#61AAA3" stroke-width="3" stroke-miterlimit="10"/>
<path d="M13.3833 13H8" stroke="#61AAA3" stroke-width="3" stroke-miterlimit="10"/>
<path d="M20.4773 13H15.094" stroke="#61AAA3" stroke-width="3" stroke-miterlimit="10"/>
<path d="M28.4839 13H23.1006" stroke="#61AAA3" stroke-width="3" stroke-miterlimit="10"/>
</svg>
