<svg width="99" height="99" viewBox="0 0 99 99" fill="none" xmlns="http://www.w3.org/2000/svg">
<path d="M70.1286 98.37C85.9656 98.37 98.804 85.5316 98.804 69.6946C98.804 53.8576 85.9656 41.0192 70.1286 41.0192C54.2915 41.0192 41.4531 53.8576 41.4531 69.6946C41.4531 85.5316 54.2915 98.37 70.1286 98.37Z" fill="#B1E5DF"/>
<path d="M5.30354 77.4684H64.6889C66.2736 77.4684 67.5586 76.1835 67.5586 74.5987V59.2223C67.5586 57.6376 66.2736 56.3527 64.6889 56.3527H5.30354C3.71879 56.3527 2.43385 57.6376 2.43385 59.2223V74.5987C2.41244 76.1835 3.71879 77.4684 5.30354 77.4684Z" fill="white" stroke="#61AAA3" stroke-width="3" stroke-miterlimit="10"/>
<path d="M5.30354 50.2921H64.6889C66.2736 50.2921 67.5586 49.0071 67.5586 47.4224V32.046C67.5586 30.4613 66.2736 29.1763 64.6889 29.1763H5.30354C3.71879 29.1763 2.43385 30.4613 2.43385 32.046V47.4224C2.41244 49.0071 3.71879 50.2921 5.30354 50.2921Z" fill="white" stroke="#61AAA3" stroke-width="3" stroke-miterlimit="10"/>
<path d="M9.58639 2H5.30328C3.71853 2 2.43359 3.28493 2.43359 4.86968V20.2461C2.43359 21.8308 3.71853 23.1157 5.30328 23.1157H64.6886C66.2734 23.1157 67.5583 21.8308 67.5583 20.2461V4.86968C67.5583 3.28493 66.2734 2 64.6886 2H22.4571" fill="white"/>
<path d="M9.58639 2H5.30328C3.71853 2 2.43359 3.28493 2.43359 4.86968V20.2461C2.43359 21.8308 3.71853 23.1157 5.30328 23.1157H64.6886C66.2734 23.1157 67.5583 21.8308 67.5583 20.2461V4.86968C67.5583 3.28493 66.2734 2 64.6886 2H22.4571" stroke="#61AAA3" stroke-width="3" stroke-miterlimit="10"/>
<path d="M17.2757 2H13.1211" stroke="#61AAA3" stroke-width="3" stroke-miterlimit="10"/>
<rect x="12.4609" y="17.3113" width="46" height="45" rx="18" fill="white"/>
<path d="M41.3359 62.655H28.5859C17.0472 62.655 12.1172 57.725 12.1172 46.1863V33.4363C12.1172 21.8975 17.0472 16.9675 28.5859 16.9675H41.3359C52.8747 16.9675 57.8047 21.8975 57.8047 33.4363V46.1863C57.8047 57.725 52.8747 62.655 41.3359 62.655ZM28.5859 20.155C18.7897 20.155 15.3047 23.64 15.3047 33.4363V46.1863C15.3047 55.9825 18.7897 59.4675 28.5859 59.4675H41.3359C51.1322 59.4675 54.6172 55.9825 54.6172 46.1863V33.4363C54.6172 23.64 51.1322 20.155 41.3359 20.155H28.5859Z" fill="#61AAA3"/>
<path d="M41.3345 36.1138C40.9308 36.1138 40.527 35.9651 40.2083 35.6463L34.9595 30.3976L29.7108 35.6463C29.0945 36.2626 28.0745 36.2626 27.4583 35.6463C26.842 35.0301 26.842 34.0101 27.4583 33.3938L33.8333 27.0188C34.4495 26.4026 35.4695 26.4026 36.0858 27.0188L42.4608 33.3938C43.077 34.0101 43.077 35.0301 42.4608 35.6463C42.142 35.9651 41.7383 36.1138 41.3345 36.1138Z" fill="#61AAA3"/>
<path d="M34.9609 46.7388C34.0897 46.7388 33.3672 46.0163 33.3672 45.145V28.145C33.3672 27.2738 34.0897 26.5513 34.9609 26.5513C35.8322 26.5513 36.5547 27.2738 36.5547 28.145V45.145C36.5547 46.0375 35.8322 46.7388 34.9609 46.7388Z" fill="#61AAA3"/>
<path d="M34.9616 53.0501C30.4779 53.0501 25.9729 52.3276 21.7016 50.9039C20.8729 50.6276 20.4266 49.7139 20.7029 48.8851C20.9791 48.0564 21.8929 47.5889 22.7216 47.8864C30.6266 50.5214 39.3179 50.5214 47.2229 47.8864C48.0516 47.6101 48.9654 48.0564 49.2416 48.8851C49.5179 49.7139 49.0716 50.6276 48.2429 50.9039C43.9504 52.3489 39.4454 53.0501 34.9616 53.0501Z" fill="#61AAA3"/>
</svg>
