<svg width="105" height="105" viewBox="0 0 105 105" fill="none" xmlns="http://www.w3.org/2000/svg">
<path d="M73.8377 104.275C90.645 104.275 104.27 90.6495 104.27 73.8422C104.27 57.0348 90.645 43.4098 73.8377 43.4098C57.0303 43.4098 43.4053 57.0348 43.4053 73.8422C43.4053 90.6495 57.0303 104.275 73.8377 104.275Z" fill="#B1E5DF"/>
<path d="M48.6326 73.2741L18.0411 80.4105C15.7683 80.9333 13.5183 79.5242 12.9955 77.2741L2.10895 30.5914C1.58622 28.3186 2.99534 26.0686 5.24538 25.5459L35.8369 18.4094C38.1096 17.8866 40.3597 19.2958 40.8824 21.5458L51.769 68.2285C52.2917 70.4785 50.8826 72.7513 48.6326 73.2741Z" fill="white" stroke="#61AAA3" stroke-width="3" stroke-miterlimit="10"/>
<path d="M14.791 40.7962C17.9165 40.7962 20.4502 38.2625 20.4502 35.137C20.4502 32.0116 17.9165 29.4778 14.791 29.4778C11.6655 29.4778 9.13184 32.0116 9.13184 35.137C9.13184 38.2625 11.6655 40.7962 14.791 40.7962Z" fill="white" stroke="#61AAA3" stroke-width="3" stroke-miterlimit="10"/>
<path d="M31.4951 36.9098C34.6206 36.9098 37.1543 34.3761 37.1543 31.2506C37.1543 28.1251 34.6206 25.5914 31.4951 25.5914C28.3696 25.5914 25.8359 28.1251 25.8359 31.2506C25.8359 34.3761 28.3696 36.9098 31.4951 36.9098Z" fill="white" stroke="#61AAA3" stroke-width="3" stroke-miterlimit="10"/>
<path d="M18.4942 56.6374C21.6197 56.6374 24.1534 54.1037 24.1534 50.9782C24.1534 47.8527 21.6197 45.319 18.4942 45.319C15.3687 45.319 12.835 47.8527 12.835 50.9782C12.835 54.1037 15.3687 56.6374 18.4942 56.6374Z" fill="white" stroke="#61AAA3" stroke-width="3" stroke-miterlimit="10"/>
<path d="M35.1983 52.751C38.3238 52.751 40.8575 50.2172 40.8575 47.0918C40.8575 43.9663 38.3238 41.4326 35.1983 41.4326C32.0728 41.4326 29.5391 43.9663 29.5391 47.0918C29.5391 50.2172 32.0728 52.751 35.1983 52.751Z" fill="white" stroke="#61AAA3" stroke-width="3" stroke-miterlimit="10"/>
<path d="M22.1992 72.4787C25.3247 72.4787 27.8584 69.945 27.8584 66.8195C27.8584 63.694 25.3247 61.1603 22.1992 61.1603C19.0737 61.1603 16.54 63.694 16.54 66.8195C16.54 69.945 19.0737 72.4787 22.1992 72.4787Z" fill="white" stroke="#61AAA3" stroke-width="3" stroke-miterlimit="10"/>
<path d="M38.8809 68.5922C42.0064 68.5922 44.5401 66.0585 44.5401 62.933C44.5401 59.8075 42.0064 57.2738 38.8809 57.2738C35.7554 57.2738 33.2217 59.8075 33.2217 62.933C33.2217 66.0585 35.7554 68.5922 38.8809 68.5922Z" fill="white" stroke="#61AAA3" stroke-width="3" stroke-miterlimit="10"/>
<path d="M70.5418 74.6606H41.6095C36.2685 74.6606 31.9502 70.3423 31.9502 65.0013V29.9097C31.9502 24.5687 36.2685 20.2504 41.6095 20.2504H70.5418C75.8829 20.2504 80.2011 24.5687 80.2011 29.9097V65.0013C80.2011 70.3423 75.8601 74.6606 70.5418 74.6606Z" fill="white" stroke="#61AAA3" stroke-width="3" stroke-miterlimit="10"/>
<path d="M67.2026 10.3182H44.9521V20.2502H67.2026V10.3182Z" fill="white" stroke="#61AAA3" stroke-width="3" stroke-miterlimit="10"/>
<path d="M80.1787 32.137H31.9277V62.0239H80.1787V32.137Z" fill="white" stroke="#61AAA3" stroke-width="3" stroke-miterlimit="10"/>
<path d="M72.1091 2H40.0176V14.1139H72.1091V2Z" fill="white" stroke="#61AAA3" stroke-width="3" stroke-miterlimit="10"/>
<path d="M65.5188 42.8644H60.2687V37.637H51.8595V42.8644H46.6094V51.2964H51.8595V56.5237H60.2687V51.2964H65.5188V42.8644Z" fill="white" stroke="#61AAA3" stroke-width="3" stroke-miterlimit="10"/>
</svg>
