<svg width="95" height="105" viewBox="0 0 95 105" fill="none" xmlns="http://www.w3.org/2000/svg">
<path d="M63.5657 104.325C80.4343 104.325 94.109 90.6504 94.109 73.7818C94.109 56.9132 80.4343 43.2385 63.5657 43.2385C46.6971 43.2385 33.0225 56.9132 33.0225 73.7818C33.0225 90.6504 46.6971 104.325 63.5657 104.325Z" fill="#B1E5DF"/>
<path d="M17.5111 72.2991H4.76005C3.23175 72.2991 2 71.0674 2 69.5391V4.43781C2 2.9095 3.23175 1.67773 4.76005 1.67773H63.1778C64.7061 1.67773 65.9379 2.9095 65.9379 4.43781V69.5162C65.9379 71.0445 64.7061 72.2763 63.1778 72.2763H60.623" fill="white"/>
<path d="M17.5111 72.2991H4.76005C3.23175 72.2991 2 71.0674 2 69.5391V4.43781C2 2.9095 3.23175 1.67773 4.76005 1.67773H63.1778C64.7061 1.67773 65.9379 2.9095 65.9379 4.43781V69.5162C65.9379 71.0445 64.7061 72.2763 63.1778 72.2763H60.623" stroke="#61AAA3" stroke-width="3" stroke-miterlimit="10"/>
<path d="M26.6578 72.2991H22.415" stroke="#61AAA3" stroke-width="3" stroke-miterlimit="10"/>
<path d="M42.0099 82.0392L38.4058 75.926L31.4258 77.1805L41.1203 56.0808L51.7044 60.9623L42.0099 82.0392Z" fill="white" stroke="#61AAA3" stroke-width="3" stroke-miterlimit="10"/>
<path d="M52.2511 82.0392L55.8551 75.926L62.858 77.1805L53.1635 56.0808L42.5566 60.9623L52.2511 82.0392Z" fill="white" stroke="#61AAA3" stroke-width="3" stroke-miterlimit="10"/>
<path d="M12.3105 13.2427H55.0575" stroke="#61AAA3" stroke-width="3" stroke-miterlimit="10"/>
<path d="M12.3105 23.6215H46.7545" stroke="#61AAA3" stroke-width="3" stroke-miterlimit="10"/>
<path d="M12.3105 34.0002H51.7956" stroke="#61AAA3" stroke-width="3" stroke-miterlimit="10"/>
<path d="M12.3105 44.379H33.684" stroke="#61AAA3" stroke-width="3" stroke-miterlimit="10"/>
<path d="M46.7544 66.8702C51.9447 66.8702 56.1523 62.6626 56.1523 57.4723C56.1523 52.2819 51.9447 48.0743 46.7544 48.0743C41.564 48.0743 37.3564 52.2819 37.3564 57.4723C37.3564 62.6626 41.564 66.8702 46.7544 66.8702Z" fill="white" stroke="#61AAA3" stroke-width="3" stroke-miterlimit="10"/>
</svg>
