<svg width="89" height="99" viewBox="0 0 89 99" fill="none" xmlns="http://www.w3.org/2000/svg">
<path d="M59.5622 98.4638C75.3992 98.4638 88.2376 85.6253 88.2376 69.7883C88.2376 53.9513 75.3992 41.1129 59.5622 41.1129C43.7252 41.1129 30.8867 53.9513 30.8867 69.7883C30.8867 85.6253 43.7252 98.4638 59.5622 98.4638Z" fill="#B1E5DF"/>
<path d="M1.76172 27.3855V72.0155C1.76172 75.0565 4.22452 77.5193 7.26553 77.5193H63.0317C66.0727 77.5193 68.5354 75.0565 68.5354 72.0155V7.59755C68.5354 4.55654 66.0727 2.09375 63.0317 2.09375H7.26553C4.22452 2.09375 1.76172 4.55654 1.76172 7.59755V12.673" fill="white"/>
<path d="M1.76172 27.3855V72.0155C1.76172 75.0566 4.22452 77.5193 7.26553 77.5193H63.0317C66.0727 77.5193 68.5354 75.0566 68.5354 72.0155V7.59755C68.5354 4.55654 66.0727 2.09375 63.0317 2.09375H7.26553C4.22452 2.09375 1.76172 4.55654 1.76172 7.59755V12.673" stroke="#61AAA3" stroke-width="3" stroke-miterlimit="10"/>
<path d="M27.5672 11.8164H12.0195V27.3855" stroke="#61AAA3" stroke-width="3" stroke-miterlimit="10"/>
<path d="M57.9989 27.3855V11.8164H42.4512" stroke="#61AAA3" stroke-width="3" stroke-miterlimit="10"/>
<path d="M42.4512 57.6029H57.9989V42.0338" stroke="#61AAA3" stroke-width="3" stroke-miterlimit="10"/>
<path d="M12.0195 42.0338V57.6029H27.5672" stroke="#61AAA3" stroke-width="3" stroke-miterlimit="10"/>
<path d="M41.3379 41.0058L57.9992 57.6029" stroke="#61AAA3" stroke-width="3" stroke-miterlimit="10"/>
<path d="M28.6808 41.0058L12.0195 57.6029" stroke="#61AAA3" stroke-width="3" stroke-miterlimit="10"/>
<path d="M12.0195 11.8164L27.6529 27.3855" stroke="#61AAA3" stroke-width="3" stroke-miterlimit="10"/>
<path d="M58.0415 11.8164L42.4082 27.3855" stroke="#61AAA3" stroke-width="3" stroke-miterlimit="10"/>
<path d="M1.76172 16.5615L1.76172 22.1077" stroke="#61AAA3" stroke-width="3" stroke-miterlimit="10"/>
</svg>
