<svg width="89" height="99" viewBox="0 0 89 99" fill="none" xmlns="http://www.w3.org/2000/svg">
<path d="M65.9919 42.1399C64.6215 60.383 50.0184 74.9005 31.7324 76.1638C34.516 89.0753 45.9929 98.775 59.7395 98.775C75.5631 98.775 88.4104 85.9491 88.4104 70.1041C88.389 56.4218 78.7963 44.9877 65.9919 42.1399Z" fill="#B1E5DF"/>
<path d="M15.9085 10.4071C31.4323 -1.90487 53.808 0.257764 66.6981 15.0536C67.0621 15.4818 67.4261 15.91 67.7901 16.3597C80.4661 32.3332 77.811 55.5653 61.8161 68.2627C60.4243 69.3762 58.9683 70.3611 57.448 71.239C41.8386 80.382 21.4756 76.8704 9.91306 62.3102C0.555949 50.5121 -0.450419 34.7741 6.1017 22.2266" fill="white"/>
<path d="M15.9085 10.4071C31.4323 -1.90487 53.808 0.257764 66.6981 15.0536C67.0621 15.4818 67.4261 15.91 67.7901 16.3597C80.4661 32.3332 77.811 55.5653 61.8161 68.2627C60.4243 69.3762 58.9683 70.3611 57.448 71.239C41.8386 80.382 21.4756 76.8704 9.91306 62.3102C0.555949 50.5121 -0.450419 34.7741 6.1017 22.2266" stroke="#61AAA3" stroke-width="3" stroke-miterlimit="10"/>
<path d="M8.34961 18.5223C9.27033 17.1733 10.2981 15.8671 11.4115 14.6252L8.34961 18.5223Z" fill="white"/>
<path d="M8.34961 18.5223C9.27033 17.1733 10.2981 15.8671 11.4115 14.6252" stroke="#61AAA3" stroke-width="3" stroke-miterlimit="10"/>
<path d="M59.718 33.8748H58.5404C57.5554 33.8748 56.6561 33.2753 56.2921 32.3545C56.2493 32.2261 56.185 32.0976 56.1208 31.9691C55.7354 31.0484 55.9495 29.9992 56.6347 29.2926L57.4698 28.4575C58.4333 27.494 58.4333 25.9523 57.4698 24.9888L53.2087 20.7278C52.2452 19.7642 50.7035 19.7642 49.74 20.7278L48.9049 21.5628C48.1983 22.2694 47.1491 22.4836 46.2284 22.0767C46.0999 22.0125 45.9714 21.9697 45.843 21.9054C44.9222 21.5414 44.3227 20.6421 44.3227 19.6572V18.4795C44.3227 17.1305 43.2307 16.0171 41.8603 16.0171H35.8221C34.4731 16.0171 33.3597 17.1091 33.3597 18.4795V19.6572C33.3597 20.6421 32.7601 21.5414 31.8394 21.9054C31.7109 21.9483 31.5825 22.0125 31.454 22.0767C30.5333 22.4621 29.4841 22.248 28.7775 21.5628L27.9424 20.7278C26.9789 19.7642 25.4372 19.7642 24.4736 20.7278L20.2126 24.9888C19.2491 25.9523 19.2491 27.494 20.2126 28.4575L21.0477 29.2926C21.7543 29.9992 21.9684 31.0484 21.5616 31.9691C21.4974 32.0976 21.4545 32.2261 21.3903 32.3545C21.0263 33.2753 20.127 33.8748 19.142 33.8748H17.9644C16.6154 33.8748 15.502 34.9668 15.502 36.3372V42.3754C15.502 43.7244 16.594 44.8378 17.9644 44.8378H19.142C20.127 44.8378 21.0263 45.4374 21.3903 46.3581C21.4331 46.4866 21.4974 46.615 21.5616 46.7435C21.947 47.6642 21.7329 48.7134 21.0477 49.42L20.2126 50.2551C19.2491 51.2187 19.2491 52.7603 20.2126 53.7239L24.4736 57.9849C25.4372 58.9484 26.9789 58.9484 27.9424 57.9849L28.7775 57.1498C29.4841 56.4432 30.5333 56.2291 31.454 56.6359C31.5825 56.7002 31.7109 56.743 31.8394 56.8072C32.7601 57.1712 33.3597 58.0705 33.3597 59.0555V60.2332C33.3597 61.5821 34.4517 62.6956 35.8221 62.6956H41.8603C43.2093 62.6956 44.3227 61.6035 44.3227 60.2332V59.0555C44.3227 58.0705 44.9222 57.1712 45.843 56.8072C45.9714 56.7644 46.0999 56.7002 46.2284 56.6359C47.1491 56.2505 48.1983 56.4646 48.9049 57.1498L49.74 57.9849C50.7035 58.9484 52.2452 58.9484 53.2087 57.9849L57.4698 53.7239C58.4333 52.7603 58.4333 51.2187 57.4698 50.2551L56.6347 49.42C55.9281 48.7134 55.714 47.6642 56.1208 46.7435C56.185 46.615 56.2279 46.4866 56.2921 46.3581C56.6561 45.4374 57.5554 44.8378 58.5404 44.8378H59.718C61.067 44.8378 62.1804 43.7458 62.1804 42.3754V36.3372C62.1804 34.9668 61.0884 33.8748 59.718 33.8748ZM38.8626 49.0132C33.5096 49.0132 29.1843 44.6879 29.1843 39.3349C29.1843 33.9819 33.5096 29.6566 38.8626 29.6566C44.2156 29.6566 48.5409 33.9819 48.5409 39.3349C48.5623 44.6879 44.2156 49.0132 38.8626 49.0132Z" fill="white" stroke="#61AAA3" stroke-width="3" stroke-miterlimit="10"/>
</svg>
