<svg width="94" height="104" viewBox="0 0 94 104" fill="none" xmlns="http://www.w3.org/2000/svg">
<path d="M69.6245 43.5083C68.1779 62.7654 52.7632 78.0897 33.4609 79.4232C36.3992 93.0524 48.514 103.291 63.0246 103.291C79.7277 103.291 93.289 89.7525 93.289 73.0268C93.2664 58.584 83.1406 46.5144 69.6245 43.5083Z" fill="#B1E5DF"/>
<path d="M8.69024 18.9397C6.61083 20.2506 4.37323 21.3129 2 22.104C2.15822 48.5938 18.1154 71.3316 40.8984 81.3896C63.6814 71.3316 79.6386 48.5938 79.7968 22.104C70.9368 19.1431 63.8396 12.3398 60.4945 3.66059C54.1885 2.30445 47.6339 1.58118 40.8984 1.58118C34.1629 1.58118 27.6083 2.30445 21.3023 3.66059C20.3304 6.16943 19.0647 8.52006 17.5277 10.6447" fill="white"/>
<path d="M8.69024 18.9397C6.61083 20.2506 4.37323 21.3129 2 22.104C2.15822 48.5938 18.1154 71.3316 40.8984 81.3896C63.6814 71.3316 79.6386 48.5938 79.7968 22.104C70.9368 19.1431 63.8396 12.3398 60.4945 3.66059C54.1885 2.30445 47.6339 1.58118 40.8984 1.58118C34.1629 1.58118 27.6083 2.30445 21.3023 3.66059C20.3304 6.16943 19.0647 8.52006 17.5277 10.6447" stroke="#61AAA3" stroke-width="3" stroke-miterlimit="10"/>
<path d="M15.4922 13.1761C14.7011 14.0576 13.8874 14.8939 13.0059 15.685C12.7573 15.911 12.4861 16.137 12.2148 16.3631" fill="white"/>
<path d="M15.4922 13.1761C14.7011 14.0576 13.8874 14.8939 13.0059 15.685C12.7573 15.911 12.4861 16.137 12.2148 16.3631" stroke="#61AAA3" stroke-width="3" stroke-miterlimit="10"/>
<path d="M28.4219 36.4791L37.9374 45.972L53.3747 30.5347" stroke="#61AAA3" stroke-width="3" stroke-miterlimit="10"/>
<path d="M40.2665 70.9926C24.4223 62.3133 13.7089 46.5144 11.4713 28.6812C11.4035 28.1614 11.6747 27.6867 12.1042 27.4155C18.4102 23.8217 23.6313 18.578 27.225 12.2042C27.4059 11.8651 27.7449 11.6165 28.1291 11.5713C32.3331 10.9385 36.605 10.5994 40.8768 10.5994C45.1486 10.5994 49.4204 10.9159 53.6244 11.5713C54.0087 11.6391 54.3477 11.8651 54.5285 12.2042C58.0996 18.578 63.3208 23.7991 69.6494 27.4155C70.1014 27.6641 70.35 28.1614 70.2822 28.6812C68.0446 46.5144 57.3312 62.3133 41.487 70.9926C41.148 71.2186 40.6733 71.2186 40.2665 70.9926Z" stroke="#61AAA3" stroke-width="3" stroke-miterlimit="10"/>
</svg>
