<svg width="88" height="96" viewBox="0 0 88 96" fill="none" xmlns="http://www.w3.org/2000/svg">
<circle cx="61" cy="69" r="27" fill="#B1E5DF"/>
<path d="M8.33899 18.4471C6.36875 19.6892 4.24863 20.6958 2 21.4453C2.14991 46.5444 17.2693 68.0884 38.8561 77.6183C60.443 68.0884 75.5624 46.5444 75.7123 21.4453C67.3174 18.6399 60.5929 12.1938 57.4234 3.97024C51.4485 2.6853 45.238 2 38.8561 2C32.4743 2 26.2638 2.6853 20.2889 3.97024C19.368 6.34736 18.1687 8.57458 16.7125 10.5876" stroke="white" stroke-width="3" stroke-miterlimit="10"/>
<path d="M14.7849 12.9863C14.0354 13.8215 13.2644 14.6139 12.4292 15.3635C12.1936 15.5776 11.9367 15.7918 11.6797 16.0059" fill="white"/>
<path d="M14.7849 12.9863C14.0354 13.8215 13.2644 14.6139 12.4292 15.3635C12.1936 15.5776 11.9367 15.7918 11.6797 16.0059" stroke="white" stroke-width="3" stroke-miterlimit="10"/>
<path d="M27.0352 35.0654L36.0511 44.0599L50.6779 29.4331" stroke="white" stroke-width="3" stroke-miterlimit="10"/>
<path d="M38.2541 67.7673C23.2418 59.5437 13.0909 44.5742 10.9708 27.6774C10.9065 27.1848 11.1635 26.7351 11.5704 26.4781C17.5453 23.073 22.4923 18.1046 25.8974 12.0654C26.0687 11.7442 26.3899 11.5086 26.754 11.4658C30.7373 10.8662 34.7848 10.5449 38.8324 10.5449C42.8799 10.5449 46.9274 10.8447 50.9107 11.4658C51.2748 11.53 51.596 11.7442 51.7674 12.0654C55.151 18.1046 60.098 23.0516 66.0944 26.4781C66.5227 26.7137 66.7582 27.1848 66.694 27.6774C64.5739 44.5742 54.4229 59.5437 39.4106 67.7673C39.0894 67.9814 38.6396 67.9814 38.2541 67.7673Z" stroke="white" stroke-width="3" stroke-miterlimit="10"/>
</svg>
