<svg width="105" height="105" viewBox="0 0 105 105" fill="none" xmlns="http://www.w3.org/2000/svg">
<path d="M74.3852 104.418C91.1498 104.418 104.74 90.8274 104.74 74.0628C104.74 57.2982 91.1498 43.7078 74.3852 43.7078C57.6206 43.7078 44.0303 57.2982 44.0303 74.0628C44.0303 90.8274 57.6206 104.418 74.3852 104.418Z" fill="#B1E5DF"/>
<path d="M79.3992 82.2352H16.8329C15.0937 82.2352 13.6748 80.8175 13.6748 79.0797V4.83327C13.6748 3.09544 15.0937 1.67773 16.8329 1.67773H79.3992C81.1385 1.67773 82.5573 3.09544 82.5573 4.83327V79.0797C82.5573 80.8404 81.1385 82.2352 79.3992 82.2352Z" fill="white"/>
<path d="M13.6748 71.3111V79.2455C13.6748 80.9013 15.0026 82.2352 16.6508 82.2352H79.5813C81.2295 82.2352 82.5573 80.9013 82.5573 79.2455V22.6927" stroke="#61AAA3" stroke-width="3" stroke-miterlimit="10"/>
<path d="M82.5573 12.6061V4.66866C82.5573 3.01215 81.2296 1.67773 79.5813 1.67773H16.6508C15.0026 1.67773 13.6748 3.01215 13.6748 4.66866V61.2202" stroke="#61AAA3" stroke-width="3" stroke-miterlimit="10"/>
<path d="M2 49.5452L13.675 61.2202L25.35 49.5452" stroke="#61AAA3" stroke-width="3" stroke-miterlimit="10"/>
<path d="M94.2328 34.3677L82.5578 22.6927L70.8828 34.3677" stroke="#61AAA3" stroke-width="3" stroke-miterlimit="10"/>
<path d="M63.878 36.7633C63.878 31.5586 59.6931 27.3628 54.5531 27.3628C52.0513 27.3628 49.7997 28.3487 48.1167 29.9537C46.4337 28.3487 44.182 27.3628 41.6803 27.3628C36.5175 27.3628 32.3555 31.5816 32.3555 36.7633C32.3555 39.4688 33.4926 41.8992 35.3121 43.6188L48.1167 56.5503L60.9213 43.6188C62.7408 41.8992 63.878 39.4688 63.878 36.7633Z" stroke="#61AAA3" stroke-width="3" stroke-miterlimit="10"/>
</svg>
