<svg width="95" height="105" viewBox="0 0 95 105" fill="none" xmlns="http://www.w3.org/2000/svg">
<path d="M63.5658 104.325C80.4344 104.325 94.109 90.6504 94.109 73.7818C94.109 56.9132 80.4344 43.2385 63.5658 43.2385C46.6972 43.2385 33.0225 56.9132 33.0225 73.7818C33.0225 90.6504 46.6972 104.325 63.5658 104.325Z" fill="#B1E5DF"/>
<path d="M8.61511 14.9078C12.2685 14.9078 15.2301 11.9462 15.2301 8.29279C15.2301 4.6394 12.2685 1.67773 8.61511 1.67773C4.96172 1.67773 2 4.6394 2 8.29279C2 11.9462 4.96172 14.9078 8.61511 14.9078Z" fill="white" stroke="#61AAA3" stroke-width="3" stroke-miterlimit="10"/>
<path d="M52.3885 37.3306C56.0419 37.3306 59.0036 34.3689 59.0036 30.7155C59.0036 27.0621 56.0419 24.1005 52.3885 24.1005C48.7352 24.1005 45.7734 27.0621 45.7734 30.7155C45.7734 34.3689 48.7352 37.3306 52.3885 37.3306Z" fill="white" stroke="#61AAA3" stroke-width="3" stroke-miterlimit="10"/>
<path d="M66.3709 14.9535C70.0243 14.9535 72.986 11.9918 72.986 8.33844C72.986 4.68505 70.0243 1.72339 66.3709 1.72339C62.7175 1.72339 59.7559 4.68505 59.7559 8.33844C59.7559 11.9918 62.7175 14.9535 66.3709 14.9535Z" fill="white" stroke="#61AAA3" stroke-width="3" stroke-miterlimit="10"/>
<path d="M15.2305 8.38403H17.7624C21.3893 8.38403 23.1457 9.8211 24.1494 12.3303L30.0116 26.7921C31.0153 29.2785 32.7946 30.7384 36.3986 30.7384L45.7737 30.7612" stroke="#61AAA3" stroke-width="3" stroke-miterlimit="10"/>
<path d="M59.5963 8.3385H48.8525" stroke="#61AAA3" stroke-width="3" stroke-miterlimit="10"/>
<path d="M25.0839 59.662C28.7372 59.662 31.6989 56.7003 31.6989 53.0469C31.6989 49.3935 28.7372 46.4319 25.0839 46.4319C21.4305 46.4319 18.4688 49.3935 18.4688 53.0469C18.4688 56.7003 21.4305 59.662 25.0839 59.662Z" fill="white" stroke="#61AAA3" stroke-width="3" stroke-miterlimit="10"/>
<path d="M65.3904 59.6393C69.0438 59.6393 72.0055 56.6776 72.0055 53.0242C72.0055 49.3708 69.0438 46.4092 65.3904 46.4092C61.737 46.4092 58.7754 49.3708 58.7754 53.0242C58.7754 56.6776 61.737 59.6393 65.3904 59.6393Z" fill="white" stroke="#61AAA3" stroke-width="3" stroke-miterlimit="10"/>
<path d="M58.7525 53.047H31.6992" stroke="#61AAA3" stroke-width="3" stroke-miterlimit="10"/>
<path d="M8.61511 82.4727C12.2685 82.4727 15.2301 79.511 15.2301 75.8576C15.2301 72.2042 12.2685 69.2426 8.61511 69.2426C4.96172 69.2426 2 72.2042 2 75.8576C2 79.511 4.96172 82.4727 8.61511 82.4727Z" fill="white" stroke="#61AAA3" stroke-width="3" stroke-miterlimit="10"/>
<path d="M45.7508 82.4727C49.4042 82.4727 52.3659 79.511 52.3659 75.8576C52.3659 72.2042 49.4042 69.2426 45.7508 69.2426C42.0975 69.2426 39.1357 72.2042 39.1357 75.8576C39.1357 79.511 42.0975 82.4727 45.7508 82.4727Z" fill="white" stroke="#61AAA3" stroke-width="3" stroke-miterlimit="10"/>
<path d="M39.1125 75.8575H15.207" stroke="#61AAA3" stroke-width="3" stroke-miterlimit="10"/>
<path d="M42.5803 8.3385H36.125" stroke="#61AAA3" stroke-width="3" stroke-miterlimit="10"/>
<path d="M8.43259 35.7111H2" stroke="#61AAA3" stroke-width="3" stroke-miterlimit="10"/>
<path d="M21.6858 35.7111H15.2305" stroke="#61AAA3" stroke-width="3" stroke-miterlimit="10"/>
</svg>
