<svg width="99" height="99" viewBox="0 0 99 99" fill="none" xmlns="http://www.w3.org/2000/svg">
<path d="M75.6606 42.1434C74.2903 60.3854 59.6881 74.902 41.4033 76.1652C44.1867 89.0759 55.6629 98.775 69.4086 98.775C85.2312 98.775 98.0777 85.9499 98.0777 70.1059C98.0777 56.4244 88.4857 44.9911 75.6606 42.1434Z" fill="#B1E5DF"/>
<path d="M11.2138 21.6962C9.92914 25.1005 9.20117 28.826 9.20117 32.7013C9.20117 34.2643 9.35104 35.7631 9.56515 37.2618H67.6527C67.8668 35.7631 68.0166 34.2643 68.0166 32.7013C68.0166 15.9795 54.849 2.40503 38.5982 2.40503C30.8475 2.40503 23.7819 5.48818 18.5363 10.5411" fill="white"/>
<path d="M11.2138 21.6962C9.92914 25.1005 9.20117 28.826 9.20117 32.7013C9.20117 34.2643 9.35104 35.7631 9.56515 37.2618H67.6527C67.8668 35.7631 68.0166 34.2643 68.0166 32.7013C68.0166 15.9795 54.849 2.40503 38.5982 2.40503C30.8475 2.40503 23.7819 5.48818 18.5363 10.5411" stroke="#61AAA3" stroke-width="3" stroke-miterlimit="10"/>
<path d="M15.7314 13.6671C15.5601 13.8812 15.3889 14.1167 15.2176 14.3523C14.3612 15.5084 13.5903 16.7289 12.8838 18.0135" fill="white"/>
<path d="M15.7314 13.6671C15.5601 13.8812 15.3889 14.1167 15.2176 14.3523C14.3612 15.5084 13.5903 16.7289 12.8838 18.0135" stroke="#61AAA3" stroke-width="3" stroke-miterlimit="10"/>
<path d="M49.283 32.7013C49.283 34.3285 48.9404 35.8915 48.3195 37.2618H28.8785C28.2576 35.8915 27.915 34.3285 27.915 32.7013C27.915 26.6206 32.7111 21.6962 38.599 21.6962C44.5084 21.6962 49.283 26.6206 49.283 32.7013Z" fill="white" stroke="#61AAA3" stroke-width="3" stroke-miterlimit="10"/>
<path d="M75.2967 40.0881V75.0305C75.2967 76.5935 74.012 77.8567 72.4491 77.8567H4.76952C3.18512 77.8567 1.92188 76.5935 1.92188 75.0305V40.0881C1.92188 38.5251 3.18512 37.2618 4.76952 37.2618H72.4491C74.012 37.2618 75.2967 38.5251 75.2967 40.0881Z" fill="white" stroke="#61AAA3" stroke-width="3" stroke-miterlimit="10"/>
<path d="M28.4072 48.4596H48.8331" stroke="#61AAA3" stroke-width="3" stroke-miterlimit="10"/>
<path d="M38.6195 35.8702C40.4405 35.8702 41.9168 34.3939 41.9168 32.5729C41.9168 30.7519 40.4405 29.2756 38.6195 29.2756C36.7985 29.2756 35.3223 30.7519 35.3223 32.5729C35.3223 34.3939 36.7985 35.8702 38.6195 35.8702Z" fill="#61AAA3"/>
</svg>
