<svg width="105" height="105" viewBox="0 0 105 105" fill="none" xmlns="http://www.w3.org/2000/svg">
<path d="M74.1199 104.67C90.9922 104.67 104.67 90.9922 104.67 74.1199C104.67 57.2476 90.9922 43.5699 74.1199 43.5699C57.2476 43.5699 43.5699 57.2476 43.5699 74.1199C43.5699 90.9922 57.2476 104.67 74.1199 104.67Z" fill="#B1E5DF"/>
<path d="M77.7248 2C79.2535 2 80.5083 2.77573 80.5083 3.7568V47.7224C80.5083 48.6806 79.2535 49.4792 77.7248 49.4792H19.0432C17.5146 49.4792 16.2597 48.7034 16.2597 47.7224V3.7568C16.2597 2.79855 17.5146 2 19.0432 2H77.7248Z" fill="white" stroke="#61AAA3" stroke-width="3" stroke-miterlimit="10"/>
<path d="M63.4651 19.8418C64.9937 19.8418 66.2486 20.6175 66.2486 21.5986V65.5642C66.2486 66.5224 64.9937 67.321 63.4651 67.321H4.7835C3.25485 67.321 2 66.5452 2 65.5642V21.5986C2 20.6403 3.25485 19.8418 4.7835 19.8418H63.4651Z" fill="white"/>
<path d="M2 36.8393V32.2078" stroke="#61AAA3" stroke-width="3" stroke-miterlimit="10"/>
<path d="M2 26.4126V21.1651C2 20.2068 3.25485 19.4083 4.7835 19.4083H63.4651C64.9937 19.4083 66.2486 20.184 66.2486 21.1651V65.1306C66.2486 66.0889 64.9937 66.8874 63.4651 66.8874H23.766L11.6054 78.9112V66.8874H4.7835C3.25485 66.8874 2 66.1117 2 65.1306V42.1326" stroke="#61AAA3" stroke-width="3" stroke-miterlimit="10"/>
<path d="M43.2735 35.1966H18.1079" stroke="#61AAA3" stroke-width="3" stroke-miterlimit="10"/>
<path d="M50.141 43.1364H18.1079" stroke="#61AAA3" stroke-width="3" stroke-miterlimit="10"/>
<path d="M38.8016 51.099H18.1079" stroke="#61AAA3" stroke-width="3" stroke-miterlimit="10"/>
</svg>
