<svg width="105" height="105" viewBox="0 0 105 105" fill="none" xmlns="http://www.w3.org/2000/svg">
<path d="M37.2578 12.9014V4.59996C37.2578 3.91043 37.5317 3.24912 38.0193 2.76155C38.5069 2.27397 39.1682 2.00007 39.8577 2.00007L69.3231 2.00007C70.0127 2.00007 70.674 2.27397 71.1615 2.76155C71.6491 3.24912 71.923 3.91043 71.923 4.59996V12.9014L37.2578 12.9014Z" fill="#FCFCFC" stroke="#61AAA3" stroke-width="3" stroke-linejoin="round"/>
<path d="M74.0891 104.65C90.9544 104.65 104.626 90.9781 104.626 74.1128C104.626 57.2475 90.9544 43.5754 74.0891 43.5754C57.2238 43.5754 43.5518 57.2475 43.5518 74.1128C43.5518 90.9781 57.2238 104.65 74.0891 104.65Z" fill="#B1E5DF"/>
<path d="M63.1418 27.2463H28.4766V78.8793H63.1418V27.2463Z" fill="#FCFCFC" stroke="#61AAA3" stroke-width="3" stroke-linejoin="round"/>
<path d="M80.4752 27.2463H63.1426V78.8793H80.4752V27.2463Z" fill="#FCFCFC" stroke="#61AAA3" stroke-width="3" stroke-linejoin="round"/>
<path d="M71.8097 12.9014L63.0522 27.2464H28.501L37.2585 12.9014H71.8097Z" fill="#FCFCFC" stroke="#61AAA3" stroke-width="3" stroke-linejoin="round"/>
<path d="M80.4747 27.2464H63.0508L71.8083 12.9014L80.4747 27.2464Z" fill="#FCFCFC" stroke="#61AAA3" stroke-width="3" stroke-linejoin="round"/>
<path d="M39.0128 39.4249H39.2637L46.9722 79.5635C41.6745 80.8745 36.2563 81.6387 30.8026 81.8442C29.6623 81.8442 28.522 81.8442 27.3361 81.8442C24.0974 81.8482 20.8612 81.6655 17.6436 81.2968" fill="white"/>
<path d="M39.0128 39.4249H39.2637L46.9722 79.5635C41.6745 80.8745 36.2563 81.6387 30.8026 81.8442C29.6623 81.8442 28.522 81.8442 27.3361 81.8442C24.0974 81.8482 20.8612 81.6655 17.6436 81.2968" stroke="#61AAA3" stroke-width="3" stroke-miterlimit="10"/>
<path d="M39.0142 39.4248L30.9181 81.7985C29.755 81.7985 28.6375 81.7985 27.4288 81.7985C24.1901 81.8025 20.9538 81.6198 17.7362 81.2511C12.3882 80.6484 7.11555 79.5022 2 77.8302L6.56121 54.7277C7.75572 54.7744 8.92312 54.3641 9.82565 53.5802C10.7282 52.7963 11.298 51.6978 11.4189 50.5086C11.7118 49.3342 11.5822 48.0943 11.0526 47.0059C10.523 45.9176 9.62735 45.0504 8.52252 44.5562L9.64003 38.695H12.1031C12.2794 39.6299 12.7715 40.4759 13.497 41.0913C14.2226 41.7067 15.1375 42.0541 16.0887 42.0755C17.0398 42.0969 17.9694 41.7909 18.7218 41.2087C19.4743 40.6265 20.0039 39.8035 20.222 38.8775L39.0142 39.4248Z" fill="white" stroke="#61AAA3" stroke-width="3" stroke-miterlimit="10"/>
<path d="M20.8236 60.0834C21.0502 57.7263 19.6381 55.6621 17.6697 55.4729C15.7013 55.2838 13.9219 57.0412 13.6954 59.3983C13.4688 61.7554 14.8809 63.8195 16.8493 64.0087C18.8177 64.1979 20.5971 62.4405 20.8236 60.0834Z" fill="white" stroke="#61AAA3" stroke-width="3" stroke-miterlimit="10"/>
<path d="M28.6967 47.9436C28.8521 46.3263 27.8805 44.9096 26.5264 44.7795C25.1723 44.6493 23.9486 45.855 23.7932 47.4723C23.6377 49.0897 24.6094 50.5063 25.9635 50.6365C27.3175 50.7666 28.5412 49.561 28.6967 47.9436Z" fill="white" stroke="#61AAA3" stroke-width="3" stroke-miterlimit="10"/>
</svg>
