<svg width="89" height="99" viewBox="0 0 89 99" fill="none" xmlns="http://www.w3.org/2000/svg">
<path d="M59.8395 98.37C75.6765 98.37 88.5149 85.5316 88.5149 69.6946C88.5149 53.8576 75.6765 41.0191 59.8395 41.0191C44.0025 41.0191 31.1641 53.8576 31.1641 69.6946C31.1641 85.5316 44.0025 98.37 59.8395 98.37Z" fill="#B1E5DF"/>
<path d="M2.03906 27.2918V71.9218C2.03906 74.9628 4.50187 77.4256 7.54288 77.4256H63.309C66.35 77.4256 68.8128 74.9628 68.8128 71.9218V7.5038C68.8128 4.46279 66.35 2 63.309 2H7.54288C4.50187 2 2.03906 4.46279 2.03906 7.5038V12.5793" fill="white"/>
<path d="M2.03906 27.2918V71.9218C2.03906 74.9628 4.50187 77.4256 7.54288 77.4256H63.309C66.35 77.4256 68.8127 74.9628 68.8127 71.9218V7.5038C68.8127 4.46279 66.35 2 63.309 2H7.54288C4.50187 2 2.03906 4.46279 2.03906 7.5038V12.5793" stroke="#61AAA3" stroke-width="3" stroke-miterlimit="10"/>
<path d="M2.03906 16.4677L2.03906 22.0139" stroke="#61AAA3" stroke-width="3" stroke-miterlimit="10"/>
<path d="M26.9023 17.8113C26.9023 14.9118 29.2528 12.5613 32.1523 12.5613C35.0518 12.5613 37.4023 14.9118 37.4023 17.8113V23.0613H50.5273V36.1863H55.7773C58.6768 36.1863 61.0273 38.5368 61.0273 41.4363C61.0273 44.3358 58.6768 46.6863 55.7773 46.6863H50.5273V59.8113H37.4023V54.5613C37.4023 51.6618 35.0518 49.3113 32.1523 49.3113C29.2528 49.3113 26.9023 51.6618 26.9023 54.5613V59.8113H13.7773V46.6863H19.0273C21.9268 46.6863 24.2773 44.3358 24.2773 41.4363C24.2773 38.5368 21.9268 36.1863 19.0273 36.1863H13.7773V23.0613H26.9023V17.8113Z" stroke="#61AAA3" stroke-width="3"/>
</svg>
