<svg width="92" height="97" viewBox="0 0 92 97" fill="none" xmlns="http://www.w3.org/2000/svg">
<path d="M69.2649 40C67.8943 58.2461 53.2889 72.7658 35 74.0293C37.784 86.9429 49.2628 96.6441 63.0115 96.6441C78.8376 96.6441 91.687 83.8162 91.687 67.9687C91.6656 54.2842 82.0714 42.8483 69.2649 40Z" fill="#B1E5DF"/>
<path d="M67.2364 51.6364C66.7644 52.7057 66.6236 53.892 66.8322 55.0421C67.0407 56.1922 67.589 57.2535 68.4064 58.0891L68.6191 58.3018C69.2784 58.9604 69.8014 59.7424 70.1582 60.6032C70.5151 61.4641 70.6988 62.3868 70.6988 63.3186C70.6988 64.2505 70.5151 65.1732 70.1582 66.034C69.8014 66.8949 69.2784 67.6769 68.6191 68.3354C67.9605 68.9947 67.1785 69.5178 66.3177 69.8746C65.4568 70.2314 64.5341 70.4151 63.6023 70.4151C62.6704 70.4151 61.7477 70.2314 60.8869 69.8746C60.0261 69.5178 59.244 68.9947 58.5854 68.3354L58.3727 68.1227C57.5371 67.3054 56.4758 66.7571 55.3257 66.5485C54.1756 66.34 52.9894 66.4808 51.92 66.9527C50.8714 67.4022 49.977 68.1484 49.3471 69.0996C48.7171 70.0508 48.3791 71.1655 48.3745 72.3064V72.9091C48.3745 74.7897 47.6275 76.5933 46.2977 77.9231C44.9679 79.2529 43.1643 80 41.2836 80C39.403 80 37.5994 79.2529 36.2696 77.9231C34.9398 76.5933 34.1927 74.7897 34.1927 72.9091V72.59C34.1653 71.4165 33.7854 70.2784 33.1025 69.3236C32.4197 68.3688 31.4653 67.6415 30.3636 67.2364C29.2943 66.7644 28.108 66.6236 26.9579 66.8322C25.8078 67.0407 24.7465 67.589 23.9109 68.4064L23.6982 68.6191C23.0396 69.2784 22.2576 69.8014 21.3968 70.1582C20.5359 70.5151 19.6132 70.6988 18.6814 70.6988C17.7495 70.6988 16.8268 70.5151 15.966 70.1582C15.1051 69.8014 14.3231 69.2784 13.6645 68.6191C13.0053 67.9605 12.4822 67.1785 12.1254 66.3177C11.7685 65.4568 11.5849 64.5341 11.5849 63.6023C11.5849 62.6704 11.7685 61.7477 12.1254 60.8869C12.4822 60.0261 13.0053 59.244 13.6645 58.5854L13.8773 58.3727C14.6946 57.5371 15.2429 56.4758 15.4515 55.3257C15.66 54.1756 15.5192 52.9894 15.0473 51.92C14.5978 50.8714 13.8516 49.977 12.9004 49.3471C11.9492 48.7171 10.8345 48.3791 9.69364 48.3745H9.09091C7.21028 48.3745 5.40668 47.6275 4.07688 46.2977C2.74708 44.9679 2 43.1643 2 41.2836C2 39.403 2.74708 37.5994 4.07688 36.2696C5.40668 34.9398 7.21028 34.1927 9.09091 34.1927H9.41C10.5835 34.1653 11.7217 33.7854 12.6764 33.1025C13.6312 32.4197 14.3584 31.4653 14.7636 30.3636C15.2356 29.2943 15.3764 28.108 15.1678 26.9579C14.9593 25.8078 14.411 24.7465 13.5936 23.9109L13.3809 23.6982C12.7216 23.0396 12.1986 22.2576 11.8418 21.3968C11.4849 20.5359 11.3012 19.6132 11.3012 18.6814C11.3012 17.7495 11.4849 16.8268 11.8418 15.966C12.1986 15.1051 12.7216 14.3231 13.3809 13.6645C14.0395 13.0053 14.8215 12.4822 15.6823 12.1254C16.5432 11.7685 17.4659 11.5849 18.3977 11.5849C19.3296 11.5849 20.2523 11.7685 21.1131 12.1254C21.9739 12.4822 22.756 13.0053 23.4145 13.6645L23.6273 13.8773C24.4629 14.6946 25.5241 15.2429 26.6743 15.4515C27.8244 15.66 29.0106 15.5192 30.08 15.0473H30.3636C31.4123 14.5978 32.3066 13.8516 32.9365 12.9004C33.5665 11.9492 33.9045 10.8345 33.9091 9.69364V9.09091C33.9091 7.21028 34.6562 5.40668 35.986 4.07688C37.3158 2.74708 39.1194 2 41 2C42.8806 2 44.6842 2.74708 46.014 4.07688C47.3438 5.40668 48.0909 7.21028 48.0909 9.09091V9.41C48.0955 10.5509 48.4335 11.6655 49.0635 12.6167C49.6934 13.568 50.5877 14.3142 51.6364 14.7636C52.7057 15.2356 53.892 15.3764 55.0421 15.1678C56.1922 14.9593 57.2535 14.411 58.0891 13.5936L58.3018 13.3809C58.9604 12.7216 59.7424 12.1986 60.6032 11.8418C61.4641 11.4849 62.3868 11.3012 63.3186 11.3012C64.2505 11.3012 65.1732 11.4849 66.034 11.8418C66.8949 12.1986 67.6769 12.7216 68.3354 13.3809C68.9947 14.0395 69.5178 14.8215 69.8746 15.6823C70.2314 16.5432 70.4151 17.4659 70.4151 18.3977C70.4151 19.3296 70.2314 20.2523 69.8746 21.1131C69.5178 21.9739 68.9947 22.756 68.3354 23.4145L68.1227 23.6273C67.3054 24.4629 66.7571 25.5241 66.5485 26.6743C66.34 27.8244 66.4808 29.0106 66.9527 30.08V30.3636C67.4022 31.4123 68.1484 32.3066 69.0996 32.9365C70.0508 33.5665 71.1655 33.9045 72.3064 33.9091H72.9091C74.7897 33.9091 76.5933 34.6562 77.9231 35.986C79.2529 37.3158 80 39.1194 80 41C80 42.8806 79.2529 44.6842 77.9231 46.014C76.5933 47.3438 74.7897 48.0909 72.9091 48.0909H72.59C71.4491 48.0955 70.3345 48.4335 69.3833 49.0635C68.4321 49.6934 67.6858 50.5877 67.2364 51.6364Z" fill="white" stroke="#61AAA3" stroke-width="3" stroke-linecap="round" stroke-linejoin="round"/>
<path d="M43.9337 30.6992C43.6059 31.0337 43.4223 31.4833 43.4223 31.9515C43.4223 32.4198 43.6059 32.8694 43.9337 33.2039L46.7961 36.0663C47.1306 36.3941 47.5802 36.5777 48.0485 36.5777C48.5167 36.5777 48.9663 36.3941 49.3008 36.0663L56.0453 29.3217C56.9449 31.3096 57.2173 33.5245 56.8261 35.6712C56.435 37.8178 55.399 39.7943 53.8561 41.3372C52.3132 42.8801 50.3367 43.9161 48.19 44.3072C46.0434 44.6984 43.8285 44.426 41.8406 43.5264L29.4786 55.8885C28.7669 56.6002 27.8016 57 26.7951 57C25.7885 57 24.8233 56.6002 24.1115 55.8885C23.3998 55.1767 23 54.2115 23 53.2049C23 52.1984 23.3998 51.2331 24.1115 50.5214L36.4736 38.1594C35.574 36.1715 35.3016 33.9566 35.6928 31.81C36.0839 29.6633 37.1199 27.6868 38.6628 26.1439C40.2057 24.601 42.1822 23.565 44.3288 23.1739C46.4755 22.7827 48.6904 23.0551 50.6783 23.9547L43.9516 30.6814L43.9337 30.6992Z" stroke="#61AAA3" stroke-width="3" stroke-linecap="round" stroke-linejoin="round"/>
</svg>
