<svg width="99" height="104" viewBox="0 0 99 104" fill="none" xmlns="http://www.w3.org/2000/svg">
<path d="M66.3808 103.71C84.0204 103.71 98.3202 89.4102 98.3202 71.7706C98.3202 54.1309 84.0204 39.8311 66.3808 39.8311C48.7411 39.8311 34.4414 54.1309 34.4414 71.7706C34.4414 89.4102 48.7411 103.71 66.3808 103.71Z" fill="#B1E5DF"/>
<path d="M14.499 2H65.9743C67.5724 2 68.8605 3.28807 68.8605 4.88623V77.5431C68.8605 79.1412 67.5724 80.4293 65.9743 80.4293H4.88622C3.28805 80.4293 2 79.1412 2 77.5431V4.91007C2 3.31191 3.28805 2.02384 4.88622 2.02384H7.36697" fill="white"/>
<path d="M14.499 2H65.9743C67.5724 2 68.8605 3.28807 68.8605 4.88623V77.5431C68.8605 79.1412 67.5724 80.4293 65.9743 80.4293H4.88622C3.28805 80.4293 2 79.1412 2 77.5431V4.91007C2 3.31191 3.28805 2.02384 4.88622 2.02384H7.36697" stroke="#61AAA3" stroke-width="3" stroke-miterlimit="10"/>
<path d="M47.0598 15.5486H11.8047" stroke="#61AAA3" stroke-width="3" stroke-miterlimit="10"/>
<path d="M57.9613 15.5486H52.332" stroke="#61AAA3" stroke-width="3" stroke-miterlimit="10"/>
<path d="M47.0598 26.688H11.8047" stroke="#61AAA3" stroke-width="3" stroke-miterlimit="10"/>
<path d="M47.0598 37.8513H11.8047" stroke="#61AAA3" stroke-width="3" stroke-miterlimit="10"/>
<path d="M57.9613 37.8275H52.332" stroke="#61AAA3" stroke-width="3" stroke-miterlimit="10"/>
<path d="M47.0598 48.9669H11.8047" stroke="#61AAA3" stroke-width="3" stroke-miterlimit="10"/>
<path d="M46.3679 60.1063H11.1367" stroke="#61AAA3" stroke-width="3" stroke-miterlimit="10"/>
<path d="M57.9613 48.9669H52.332" stroke="#61AAA3" stroke-width="3" stroke-miterlimit="10"/>
</svg>
