<svg width="99" height="99" viewBox="0 0 99 99" fill="none" xmlns="http://www.w3.org/2000/svg">
<path d="M21.5066 23.6538C27.4861 23.6538 32.3335 18.8064 32.3335 12.8269C32.3335 6.84737 27.4861 2 21.5066 2C15.5271 2 10.6797 6.84737 10.6797 12.8269C10.6797 18.8064 15.5271 23.6538 21.5066 23.6538Z" stroke="#61AAA3" stroke-width="3" stroke-miterlimit="10"/>
<path d="M40.2656 35.2097C38.2011 32.2103 35.4565 29.7416 32.2558 28.0053C29.0552 26.269 25.4893 25.3142 21.8492 25.219H21.742C18.102 25.3142 14.5361 26.269 11.3354 28.0053C8.13476 29.7416 5.39013 32.2103 3.32561 35.2097C2.67258 36.1368 2.33437 37.2491 2.36082 38.3828L4.16175 72.064C4.13831 73.1973 4.47621 74.3086 5.12651 75.2371C7.42053 78.3672 36.1707 78.3672 38.4647 75.2371C39.115 74.3086 39.4529 73.1973 39.4295 72.064L41.2304 38.3828C41.2569 37.2491 40.9187 36.1368 40.2656 35.2097V35.2097Z" stroke="#61AAA3" stroke-width="3" stroke-miterlimit="10"/>
<path d="M70.2163 41.1055C69.5946 41.1055 68.9943 41.1055 68.3725 41.1055L66.9789 67.1115C67.0055 68.0895 66.7202 69.0506 66.1643 69.8557C64.6206 71.9996 49.3558 72.4284 41.5947 71.2921C41.909 76.8892 43.8562 82.2715 47.196 86.7739C50.5357 91.2764 55.1214 94.7016 60.3865 96.6263C65.6516 98.551 71.3653 98.8908 76.8214 97.6038C82.2775 96.3168 87.2369 93.4593 91.0868 89.3845C94.9367 85.3097 97.5083 80.1961 98.4838 74.6758C99.4592 69.1554 98.7959 63.4703 96.5756 58.3228C94.3554 53.1754 90.6755 48.7913 85.9909 45.7124C81.3063 42.6334 75.8222 40.9945 70.2163 40.9983V41.1055Z" fill="#B1E5DF"/>
<path d="M51.4138 25.1543C56.6119 25.1543 60.8257 20.9405 60.8257 15.7424C60.8257 10.5444 56.6119 6.33057 51.4138 6.33057C46.2158 6.33057 42.002 10.5444 42.002 15.7424C42.002 20.9405 46.2158 25.1543 51.4138 25.1543Z" stroke="#61AAA3" stroke-width="3" stroke-miterlimit="10"/>
<path d="M67.7083 35.2096C65.914 32.6055 63.5302 30.4619 60.751 28.9531C57.9718 27.4443 54.8757 26.6129 51.7145 26.5266H50.7068C45.8962 26.8721 41.3867 28.9969 38.0576 32.4868C38.8495 33.3477 39.587 34.257 40.2659 35.2096C40.9189 36.1367 41.2571 37.2489 41.2306 38.3826L39.4941 70.9919C46.1617 72.6213 64.4495 72.2782 66.1646 69.9628C66.7206 69.1577 67.0059 68.1966 66.9793 67.2185L68.5444 37.9324C68.5587 36.9595 68.2661 36.0068 67.7083 35.2096V35.2096Z" stroke="#61AAA3" stroke-width="3" stroke-miterlimit="10"/>
</svg>
