<svg width="106" height="105" viewBox="0 0 106 105" fill="none" xmlns="http://www.w3.org/2000/svg">
<path d="M75.1182 104.65C91.985 104.65 105.658 90.9768 105.658 74.11C105.658 57.2432 91.985 43.5699 75.1182 43.5699C58.2514 43.5699 44.5781 57.2432 44.5781 74.11C44.5781 90.9768 58.2514 104.65 75.1182 104.65Z" fill="#B1E5DF"/>
<path d="M95.0991 76.4136H3V82.3665H95.0991V76.4136Z" fill="white" stroke="#61AAA3" stroke-width="3" stroke-miterlimit="10"/>
<path d="M95.0991 76.4136H3C3 59.4216 6.80895 50.8457 10.7091 50.4352C13.0358 52.9316 15.8646 54.9071 19.0094 56.2319C22.1543 57.5566 25.544 58.2006 28.9556 58.1215C32.6687 58.2214 36.3533 57.4478 39.7127 55.8632C43.0721 54.2785 46.0124 51.9271 48.2969 48.9983C54.2042 51.0966 62.1414 53.9248 69.4628 56.5934C73.477 58.0759 77.2632 59.6497 80.5247 60.7445C87.4356 63.1393 95.0991 66.6518 95.0991 76.4136Z" fill="white" stroke="#61AAA3" stroke-width="3" stroke-miterlimit="10"/>
<path d="M53.2679 48.4509L50.5537 55.088" stroke="#61AAA3" stroke-width="3" stroke-miterlimit="10"/>
<path d="M57.8522 50.0018L55.1152 56.639" stroke="#61AAA3" stroke-width="3" stroke-miterlimit="10"/>
<path d="M62.4134 51.5756L59.6992 58.2127" stroke="#61AAA3" stroke-width="3" stroke-miterlimit="10"/>
<path d="M66.9974 53.1265L64.2832 59.7637" stroke="#61AAA3" stroke-width="3" stroke-miterlimit="10"/>
<path d="M25.7832 76.4136C30.0255 65.8763 46.3105 57.4145 66.9974 68.9782L72.2889 57.711" stroke="#61AAA3" stroke-width="3" stroke-miterlimit="10"/>
<path d="M40.3597 50.3211L3 24.0918L6.42121 19.2337H6.44401L25.0782 32.3255L44.7388 46.1244" stroke="#61AAA3" stroke-width="3" stroke-miterlimit="10"/>
<path d="M44.6697 46.1245L25.0091 32.3256L6.44336 19.2337C16.2052 5.3208 24.2337 0.485478 27.6549 2.40136C28.1153 5.7917 29.2908 9.04553 31.1035 11.9474C32.9161 14.8492 35.3246 17.3328 38.1694 19.2337C41.1386 21.457 44.5895 22.9499 48.2428 23.5918C51.8961 24.2337 55.6493 24.0065 59.1985 22.9286L61.753 26.5323L64.5356 30.4553L67.341 34.4239L70.1008 38.3697L72.1535 41.312C72.7465 42.1559 73.3167 42.9998 73.8641 43.8209C75.6431 46.3754 77.2853 48.8843 78.8819 50.9826C80.231 52.7443 81.4216 54.6219 82.4399 56.5934V56.5934" stroke="#61AAA3" stroke-width="3" stroke-miterlimit="10"/>
<path d="M63.6232 25.2322L57.5791 29.1096" stroke="#61AAA3" stroke-width="3" stroke-miterlimit="10"/>
<path d="M66.4738 29.1325L60.4297 33.0099" stroke="#61AAA3" stroke-width="3" stroke-miterlimit="10"/>
<path d="M69.3254 33.0554L63.2812 36.91" stroke="#61AAA3" stroke-width="3" stroke-miterlimit="10"/>
<path d="M72.176 36.9557L66.1318 40.8103" stroke="#61AAA3" stroke-width="3" stroke-miterlimit="10"/>
<path d="M25.0771 32.3256C34.5881 26.0762 51.8995 27.9921 65.1966 48.7246L73.8865 43.7297" stroke="#61AAA3" stroke-width="3" stroke-miterlimit="10"/>
</svg>
