<svg width="104" height="105" viewBox="0 0 104 105" fill="none" xmlns="http://www.w3.org/2000/svg">
<path d="M78.2237 43.7521V65.7173C78.2237 68.4629 76 70.7093 73.2316 70.7093H50.1999C50.8126 71.3447 51.2664 72.1616 51.3799 73.0919L51.4253 73.4323C51.7202 75.7241 50.1091 77.8344 47.8173 78.1294C47.8173 78.1294 46.1609 78.3563 43.6875 78.7194C46.0701 93.1284 58.5503 104.111 73.6174 104.111C90.3863 104.111 104.001 90.5189 104.001 73.7273C104.001 58.5468 92.8142 45.9758 78.2237 43.7521Z" fill="#B1E5DF"/>
<path d="M40.832 39.418V6.99209C40.832 4.24644 43.0558 2 45.8241 2H73.2579C76.0036 2 78.25 4.22375 78.25 6.99209V65.7172C78.25 68.4629 76.0263 70.7093 73.2579 70.7093H54.9233" stroke="#61AAA3" stroke-width="3" stroke-miterlimit="10"/>
<path d="M78.2273 6.99209V11.0311H40.832V6.99209C40.832 4.24644 43.0558 2 45.8241 2H73.2579C76.0036 2.02269 78.2273 4.24644 78.2273 6.99209Z" stroke="#61AAA3" stroke-width="3" stroke-miterlimit="10"/>
<path d="M54.1289 6.51556H65.3384" stroke="#61AAA3" stroke-width="3" stroke-miterlimit="10"/>
<path d="M23.7675 37.6481L24.0398 37.875C25.8325 39.3272 26.1274 41.9594 24.6752 43.7747L26.4451 41.5737C27.8974 39.7811 30.5296 39.4861 32.3449 40.9383L32.6172 41.1652C34.4098 42.6175 34.7048 45.2497 33.2525 47.065L35.4309 44.3874C36.8831 42.5948 39.5153 42.2998 41.3306 43.7521L41.6029 43.979C43.3955 45.4312 43.6905 48.0634 42.2383 49.8787L51.8367 37.9885C53.289 36.1958 55.9212 35.9009 57.7365 37.3531L58.0088 37.58C59.8014 39.0323 60.0964 41.6644 58.6441 43.4798L36.4747 70.9363L46.7539 69.5748C49.0457 69.2798 51.156 70.8909 51.451 73.1827L51.4963 73.5231C51.7913 75.8149 50.1803 77.9252 47.8884 78.2202C47.8884 78.2202 21.7253 82.0096 20.1369 82.0323C16.0979 82.1231 11.9907 80.8524 8.58705 78.1067C1.46197 72.3658 -0.0356583 62.2228 4.84298 54.6893C4.97913 54.4397 5.13797 54.1674 5.3195 53.9405L17.9132 38.3288C19.32 36.4681 21.9522 36.1958 23.7675 37.6481Z" stroke="#61AAA3" stroke-width="3" stroke-miterlimit="10"/>
<path d="M32.457 61.8597L43.7119 47.9273" stroke="#61AAA3" stroke-width="3" stroke-miterlimit="10"/>
<path d="M25.6758 56.3911L33.8674 46.2254" stroke="#61AAA3" stroke-width="3" stroke-miterlimit="10"/>
<path d="M18.8867 50.8998L25.1722 43.1167" stroke="#61AAA3" stroke-width="3" stroke-miterlimit="10"/>
<path d="M51.4062 23.3525L56.8975 28.8439L68.7878 16.9763" stroke="#61AAA3" stroke-width="3" stroke-miterlimit="10"/>
</svg>
