<svg width="104" height="104" viewBox="0 0 104 104" fill="none" xmlns="http://www.w3.org/2000/svg">
<path d="M73.1733 103.29C89.8189 103.29 103.313 89.796 103.313 73.1505C103.313 56.505 89.8189 43.0111 73.1733 43.0111C56.5278 43.0111 43.0339 56.505 43.0339 73.1505C43.0339 89.796 56.5278 103.29 73.1733 103.29Z" fill="#B1E5DF"/>
<path d="M43.844 28.9882C43.5739 28.9657 43.3038 28.9431 43.0337 28.9431V2H37.5866L16.6983 29.9335H2V40.9629V51.9922H16.6983L37.6091 81.3213H43.0562V52.9151C43.3263 52.9151 43.5964 52.9151 43.8665 52.8926C48.3908 49.7188 50.9568 45.4196 50.9568 40.9404C50.9568 36.4611 48.3908 32.1619 43.844 28.9882Z" fill="white"/>
<path d="M43.8442 28.9882C48.3685 32.1619 50.9345 36.4611 50.9345 40.9404C50.9345 45.4196 48.391 49.7188 43.8442 52.8926" stroke="#61AAA3" stroke-width="3" stroke-linecap="square"/>
<path d="M68.6938 14.9651C75.5816 21.8529 79.4531 31.1941 79.4531 40.9404C79.4531 50.6868 75.5816 60.0279 68.6938 66.9157" stroke="#61AAA3" stroke-width="3" stroke-linecap="square"/>
<path d="M61.0858 27.9528C64.5297 31.3967 66.4654 36.0785 66.4654 40.9404C66.4654 45.8024 64.5297 50.4842 61.0858 53.9281" stroke="#61AAA3" stroke-width="3" stroke-linecap="square"/>
<path d="M2 38.712V36.2585" stroke="#61AAA3" stroke-width="3" stroke-linecap="square"/>
<path d="M2 29.9335H16.6983L37.6091 2H43.0562V81.2988H37.6091L16.6983 51.9922H2V46.0499" stroke="#61AAA3" stroke-width="3" stroke-linecap="square"/>
<path d="M16.6984 29.9336V51.9923" stroke="#61AAA3" stroke-width="3" stroke-linecap="square"/>
</svg>
