<svg width="102" height="102" viewBox="0 0 102 102" fill="none" xmlns="http://www.w3.org/2000/svg">
<path d="M78.2528 43.2223C76.8306 62.1556 61.675 77.2223 42.6973 78.5334C45.5862 91.9334 57.4972 102 71.7639 102C88.1861 102 101.519 88.6889 101.519 72.2445C101.519 58.0445 91.5639 46.2001 78.2528 43.2223Z" fill="#B1E5DF"/>
<path d="M78.4088 40.3333C78.4088 60.8888 62.2088 77.6888 41.8532 78.6221C41.2755 78.6444 40.6755 78.6666 40.0755 78.6666C18.8977 78.6666 1.74219 61.511 1.74219 40.3333C1.74219 38.4666 1.87552 36.6666 2.14219 34.8666C4.78663 16.2889 20.7644 2 40.0755 2C61.231 2 78.4088 19.1555 78.4088 40.3333Z" fill="white"/>
<path d="M78.4088 40.3333C78.4088 60.8888 62.2088 77.6888 41.8532 78.6221C41.2755 78.6444 40.6755 78.6666 40.0755 78.6666C18.8977 78.6666 1.74219 61.511 1.74219 40.3333C1.74219 38.4666 1.87552 36.6666 2.14219 34.8666C4.78663 16.2889 20.7644 2 40.0755 2C55.6977 2 69.1421 11.3555 75.1199 24.7777" stroke="#61AAA3" stroke-width="3" stroke-miterlimit="10"/>
<path d="M76.6758 28.9554C77.1869 30.5777 77.5869 32.2665 77.8758 33.9777" stroke="#61AAA3" stroke-width="3" stroke-miterlimit="10"/>
<path d="M64.4535 40.3335C64.4535 53.4223 54.1424 64.089 41.1869 64.689C40.8091 64.7112 40.4535 64.7112 40.0535 64.7112C26.5869 64.7112 15.6758 53.8001 15.6758 40.3335C15.6758 39.1557 15.7647 38.0001 15.9202 36.8668C17.6091 25.0446 27.7647 15.9557 40.0535 15.9557C53.5424 15.9335 64.4535 26.8668 64.4535 40.3335Z" stroke="#61AAA3" stroke-width="3" stroke-miterlimit="10"/>
<path d="M40.0762 19.6665V24.2221" stroke="#61AAA3" stroke-width="3" stroke-miterlimit="10"/>
<path d="M47.8539 40.311H40.0762V29.9999" stroke="#61AAA3" stroke-width="3" stroke-miterlimit="10"/>
<path d="M40.0762 56.4221V60.9999" stroke="#61AAA3" stroke-width="3" stroke-miterlimit="10"/>
<path d="M19.4102 40.3333H23.9657" stroke="#61AAA3" stroke-width="3" stroke-miterlimit="10"/>
<path d="M56.166 40.3333H60.7438" stroke="#61AAA3" stroke-width="3" stroke-miterlimit="10"/>
<path d="M25.4531 54.9554L28.6976 51.711" stroke="#61AAA3" stroke-width="3" stroke-miterlimit="10"/>
<path d="M51.4531 28.9557L54.6976 25.7112" stroke="#61AAA3" stroke-width="3" stroke-miterlimit="10"/>
<path d="M54.6976 54.9554L51.4531 51.711" stroke="#61AAA3" stroke-width="3" stroke-miterlimit="10"/>
<path d="M28.6976 28.9556L25.4531 25.7112" stroke="#61AAA3" stroke-width="3" stroke-miterlimit="10"/>
</svg>
