<svg width="105" height="105" viewBox="0 0 105 105" fill="none" xmlns="http://www.w3.org/2000/svg">
<path d="M73.7819 104.65C90.621 104.65 104.272 90.9992 104.272 74.1601C104.272 57.321 90.621 43.6702 73.7819 43.6702C56.9428 43.6702 43.292 57.321 43.292 74.1601C43.292 90.9992 56.9428 104.65 73.7819 104.65Z" fill="#B1E5DF"/>
<path d="M8.31649 36.4747C21.569 36.0193 29.015 39.9587 36.6204 48.1561C47.186 59.7463 50.6243 64.0955 54.4953 64.6648V52.8696C54.525 52.1307 54.8457 51.4335 55.3875 50.9301C55.9292 50.4267 56.6481 50.158 57.3872 50.1827H77.4937C78.2328 50.158 78.9517 50.4267 79.4934 50.9301C80.0352 51.4335 80.3559 52.1307 80.3856 52.8696V66.6914C80.3856 66.6914 80.1123 79.1241 68.2488 81.72C54.5864 84.7485 42.7229 76.9154 31.4742 56.8317C20.977 38.1598 5.99389 40.5279 4.60488 40.4141C1.46253 40.4141 -0.359119 36.748 8.31649 36.4747Z" fill="white" stroke="#61AAA3" stroke-width="3" stroke-miterlimit="10"/>
<path d="M30.4502 55.1695C30.8077 53.3648 31.8016 51.7486 33.251 50.6153C34.3987 49.6953 35.7626 49.0839 37.2131 48.8392" fill="white"/>
<path d="M30.4502 55.1695C30.8077 53.3648 31.8016 51.7486 33.251 50.6153C34.3987 49.6953 35.7626 49.0839 37.2131 48.8392" stroke="#61AAA3" stroke-width="3" stroke-miterlimit="10"/>
<path d="M66.2221 2C55.4061 8.07976 51.8994 16.9148 51.8994 25.1577C51.8994 33.4007 61.0077 35.7005 66.1311 39.6171C71.3 35.7005 80.3627 33.2185 80.3627 25.1577C80.3627 17.0969 76.8333 8.07976 66.2221 2Z" stroke="#61AAA3" stroke-width="3" stroke-miterlimit="10"/>
<path d="M66.1318 12.8843V44.6721" stroke="#61AAA3" stroke-width="3" stroke-miterlimit="10"/>
<path d="M74.2388 21.446L66.0869 29.8029" stroke="#61AAA3" stroke-width="3" stroke-miterlimit="10"/>
<path d="M66.0865 29.8029L57.9346 21.446" stroke="#61AAA3" stroke-width="3" stroke-miterlimit="10"/>
</svg>
