<svg width="92" height="102" viewBox="0 0 92 102" fill="none" xmlns="http://www.w3.org/2000/svg">
<path d="M61.7204 102C78.154 102 91.476 88.678 91.476 72.2444C91.476 55.8109 78.154 42.4888 61.7204 42.4888C45.2869 42.4888 31.9648 55.8109 31.9648 72.2444C31.9648 88.678 45.2869 102 61.7204 102Z" fill="#B1E5DF"/>
<path d="M13.3866 7.24442H61.3422C62.8311 7.24442 64.0311 8.44441 64.0311 9.9333V77.6222C64.0311 79.1111 62.8311 80.3111 61.3422 80.3111H4.43108C2.94219 80.3111 1.74219 79.1111 1.74219 77.6222V9.95553C1.74219 8.46664 2.94219 7.26663 4.43108 7.26663H6.71996" fill="white"/>
<path d="M13.3866 7.24442H61.3422C62.8311 7.24442 64.0311 8.44441 64.0311 9.9333V77.6222C64.0311 79.1111 62.8311 80.3111 61.3422 80.3111H4.43108C2.94219 80.3111 1.74219 79.1111 1.74219 77.6222V9.95553C1.74219 8.46664 2.94219 7.26663 4.43108 7.26663H6.71996" stroke="#61AAA3" stroke-width="3" stroke-miterlimit="10"/>
<path d="M48.6756 12.4889H16.0756C14.5867 12.4889 13.3867 11.2889 13.3867 9.80001V4.68889C13.3867 3.2 14.5867 2 16.0756 2H48.6756C50.1645 2 51.3645 3.2 51.3645 4.68889V9.80001C51.3868 11.2889 50.1645 12.4889 48.6756 12.4889Z" fill="white" stroke="#61AAA3" stroke-width="3" stroke-miterlimit="10"/>
<path d="M21.0293 32.3334H53.8738" stroke="#61AAA3" stroke-width="3" stroke-miterlimit="10"/>
<path d="M10.8965 32.3112H16.1409" stroke="#61AAA3" stroke-width="3" stroke-miterlimit="10"/>
<path d="M21.0293 42.7112H53.8738" stroke="#61AAA3" stroke-width="3" stroke-miterlimit="10"/>
<path d="M10.8965 42.689H16.1409" stroke="#61AAA3" stroke-width="3" stroke-miterlimit="10"/>
<path d="M21.0293 53.089H53.8738" stroke="#61AAA3" stroke-width="3" stroke-miterlimit="10"/>
<path d="M10.8965 53.089H16.1409" stroke="#61AAA3" stroke-width="3" stroke-miterlimit="10"/>
<path d="M21.0293 63.4668H53.8738" stroke="#61AAA3" stroke-width="3" stroke-miterlimit="10"/>
<path d="M10.8965 63.4445H16.1409" stroke="#61AAA3" stroke-width="3" stroke-miterlimit="10"/>
</svg>
