<svg width="92" height="102" viewBox="0 0 92 102" fill="none" xmlns="http://www.w3.org/2000/svg">
<path d="M62.0094 102C78.4429 102 91.7649 88.6778 91.7649 72.2443C91.7649 55.8108 78.4429 42.4888 62.0094 42.4888C45.5759 42.4888 32.2539 55.8108 32.2539 72.2443C32.2539 88.6778 45.5759 102 62.0094 102Z" fill="#B1E5DF"/>
<path d="M10.4088 80.2888H4.4533C2.96441 80.2888 1.74219 78.911 1.74219 77.2221V5.06667C1.74219 3.37778 2.96441 2 4.4533 2H61.6088C63.0977 2 64.3199 3.37778 64.3199 5.06667V77.2221C64.3199 78.911 63.0977 80.2888 61.6088 80.2888H17.4533" fill="white"/>
<path d="M10.4088 80.2888H4.4533C2.96441 80.2888 1.74219 78.911 1.74219 77.2221V5.06667C1.74219 3.37778 2.96441 2 4.4533 2H61.6088C63.0977 2 64.3199 3.37778 64.3199 5.06667V77.2221C64.3199 78.911 63.0977 80.2888 61.6088 80.2888H17.4533" stroke="#61AAA3" stroke-width="3" stroke-miterlimit="10"/>
<path d="M10.1426 49.2445H53.7203" stroke="#61AAA3" stroke-width="3" stroke-miterlimit="10"/>
<path d="M20.9643 54.9333C24.1062 54.9333 26.6531 52.3863 26.6531 49.2444C26.6531 46.1025 24.1062 43.5555 20.9643 43.5555C17.8224 43.5555 15.2754 46.1025 15.2754 49.2444C15.2754 52.3863 17.8224 54.9333 20.9643 54.9333Z" fill="white" stroke="#61AAA3" stroke-width="3" stroke-miterlimit="10"/>
<path d="M10.1426 33.7555H53.7203" stroke="#61AAA3" stroke-width="3" stroke-miterlimit="10"/>
<path d="M42.9877 39.4443C46.1296 39.4443 48.6766 36.8973 48.6766 33.7554C48.6766 30.6135 46.1296 28.0665 42.9877 28.0665C39.8458 28.0665 37.2988 30.6135 37.2988 33.7554C37.2988 36.8973 39.8458 39.4443 42.9877 39.4443Z" fill="white" stroke="#61AAA3" stroke-width="3" stroke-miterlimit="10"/>
<path d="M42.9858 70.4C46.1276 70.4 48.6746 67.853 48.6746 64.7111C48.6746 61.5692 46.1276 59.0222 42.9858 59.0222C39.8439 59.0222 37.2969 61.5692 37.2969 64.7111C37.2969 67.853 39.8439 70.4 42.9858 70.4Z" fill="white" stroke="#61AAA3" stroke-width="3" stroke-miterlimit="10"/>
<path d="M10.1426 18.289H53.7203" stroke="#61AAA3" stroke-width="3" stroke-miterlimit="10"/>
<path d="M20.9643 23.9777C24.1062 23.9777 26.6531 21.4307 26.6531 18.2888C26.6531 15.147 24.1062 12.6 20.9643 12.6C17.8224 12.6 15.2754 15.147 15.2754 18.2888C15.2754 21.4307 17.8224 23.9777 20.9643 23.9777Z" fill="white" stroke="#61AAA3" stroke-width="3" stroke-miterlimit="10"/>
</svg>
