<svg width="104" height="104" viewBox="0 0 104 104" fill="none" xmlns="http://www.w3.org/2000/svg">
<path d="M79.8913 43.5235C79.1852 52.8588 75.1406 61.6276 68.4979 68.2247C61.8552 74.8217 53.0587 78.8057 43.7188 79.4474C44.8676 84.7496 47.4213 89.6453 51.1122 93.6215C54.8032 97.5977 59.4956 100.508 64.6978 102.048C69.9 103.587 75.4206 103.699 80.681 102.372C85.9415 101.045 90.7482 98.3281 94.5977 94.5051C98.4471 90.6821 101.198 85.8942 102.561 80.643C103.924 75.3919 103.85 69.8707 102.346 64.658C100.843 59.4452 97.9647 54.7329 94.0141 51.0146C90.0634 47.2963 85.1855 44.7089 79.8913 43.5235Z" fill="#B1E5DF"/>
<path d="M2.32514 45.219C1.12929 35.2599 3.81674 25.223 9.82904 17.194C15.8413 9.16498 24.7161 3.76128 34.6092 2.10581L36.3952 1.85712C41.4861 1.24827 46.6471 1.64927 51.5829 3.03717C56.5187 4.42507 61.1324 6.77263 65.1599 9.94551C69.1874 13.1184 72.5498 17.0543 75.0545 21.5281C77.5593 26.0018 79.1573 30.9256 79.757 36.0176C79.9818 37.8624 80.0725 39.7212 80.0283 41.5791C79.8321 50.0406 76.8884 58.2086 71.6417 64.85C66.395 71.4914 59.1301 76.2456 50.9437 78.3949C42.7574 80.5442 34.094 79.972 26.2615 76.7646C18.429 73.5572 11.8525 67.8887 7.52495 60.6149" stroke="#61AAA3" stroke-width="3" stroke-miterlimit="10"/>
<path d="M5.42191 56.5229C4.71174 54.9215 4.10756 53.2751 3.61328 51.5944" stroke="#61AAA3" stroke-width="3" stroke-miterlimit="10"/>
<path d="M59.4547 52.8152C56.872 56.7065 53.1234 59.6801 48.7464 61.3095C44.3694 62.9388 39.5889 63.1404 35.0904 61.8852C30.5918 60.63 26.6062 57.9826 23.7051 54.3225C20.804 50.6624 19.1364 46.1776 18.9414 41.5113C18.9414 41.1722 18.9414 40.8331 18.9414 40.494C18.9414 37.5904 19.5133 34.7152 20.6245 32.0326C21.7356 29.3501 23.3643 26.9126 25.4174 24.8595C27.4706 22.8063 29.908 21.1777 32.5906 20.0665C35.2731 18.9554 38.1483 18.3835 41.0519 18.3835C42.1111 18.3784 43.1692 18.454 44.217 18.6096C49.4838 19.3721 54.2982 22.0105 57.7748 26.0396C61.2514 30.0687 63.1566 35.2175 63.1398 40.5392C63.161 41.445 63.1233 42.3512 63.0267 43.2521" stroke="#61AAA3" stroke-width="3" stroke-miterlimit="10"/>
<path d="M52.1995 46.1686L41.0312 40.5844V24.7363" stroke="#61AAA3" stroke-width="3" stroke-miterlimit="10"/>
<path d="M54.1875 37.2159L62.9141 45.626L71.3016 36.922" stroke="#61AAA3" stroke-width="3" stroke-miterlimit="10"/>
</svg>
