<svg width="91" height="100" viewBox="0 0 91 100" fill="none" xmlns="http://www.w3.org/2000/svg">
<circle cx="64" cy="73" r="27" fill="#B1E5DF"/>
<path d="M2.26366 43.3467C1.13059 33.9105 3.67694 24.4006 9.37358 16.7931C15.0702 9.18564 23.4791 4.06564 32.8527 2.49709L34.5449 2.26146C39.3686 1.68457 44.2586 2.06452 48.9353 3.37955C53.6119 4.69458 57.9834 6.91889 61.7994 9.92519C65.6155 12.9315 68.8013 16.6608 71.1746 20.8997C73.5478 25.1385 75.0619 29.8038 75.6302 34.6284C75.8432 36.3764 75.9291 38.1376 75.8873 39.898C75.7013 47.9152 72.9122 55.6544 67.9409 61.9471C62.9697 68.2398 56.0862 72.7444 48.3297 74.7809C40.5731 76.8173 32.3646 76.2751 24.9433 73.2361C17.522 70.1971 11.2908 64.8262 7.19046 57.9344" stroke="white" stroke-width="3" stroke-miterlimit="10"/>
<path d="M5.19804 54.0575C4.52516 52.5401 3.95271 50.9801 3.48438 49.3877" stroke="white" stroke-width="3" stroke-miterlimit="10"/>
<path d="M56.3941 50.5442C53.9469 54.2312 50.3951 57.0486 46.248 58.5924C42.1008 60.1363 37.5713 60.3272 33.3089 59.138C29.0465 57.9487 25.2702 55.4402 22.5214 51.9723C19.7726 48.5044 18.1926 44.2551 18.0078 39.8337C18.0078 39.5124 18.0078 39.1911 18.0078 38.8698C18.0078 36.1186 18.5497 33.3944 19.6025 30.8527C20.6553 28.311 22.1985 26.0015 24.1438 24.0562C26.0892 22.1108 28.3986 20.5677 30.9404 19.5148C33.4821 18.462 36.2063 17.9201 38.9574 17.9201C39.9611 17.9153 40.9636 17.9869 41.9564 18.1344C46.9466 18.8569 51.5083 21.3568 54.8024 25.1743C58.0965 28.9919 59.9016 33.8704 59.8857 38.9126C59.9058 39.7709 59.87 40.6295 59.7786 41.4831" stroke="white" stroke-width="3" stroke-miterlimit="10"/>
<path d="M49.5194 44.2465L38.9375 38.9555V23.9395" stroke="white" stroke-width="3" stroke-miterlimit="10"/>
<path d="M51.4023 35.7638L59.6708 43.7324L67.618 35.4854" stroke="white" stroke-width="3" stroke-miterlimit="10"/>
</svg>
