<svg width="99" height="99" viewBox="0 0 99 99" fill="none" xmlns="http://www.w3.org/2000/svg">
<path d="M69.4703 98.775C85.3073 98.775 98.1458 85.9366 98.1458 70.0996C98.1458 54.2626 85.3073 41.4242 69.4703 41.4242C53.6333 41.4242 40.7949 54.2626 40.7949 70.0996C40.7949 85.9366 53.6333 98.775 69.4703 98.775Z" fill="#B1E5DF"/>
<path d="M75.6591 39.3469C75.6591 59.1563 60.0471 75.3464 40.4304 76.2459C39.8736 76.2673 39.2954 76.2887 38.7172 76.2887C18.3082 76.2887 1.77539 59.7559 1.77539 39.3469C1.77539 37.548 1.90387 35.8133 2.16085 34.0786C4.70931 16.1752 20.1071 2.40503 38.7172 2.40503C59.1263 2.40503 75.6591 18.9593 75.6591 39.3469Z" fill="white"/>
<path d="M75.6591 39.3469C75.6591 59.1563 60.0471 75.3464 40.4304 76.2459C39.8736 76.2673 39.2954 76.2887 38.7172 76.2887C18.3082 76.2887 1.77539 59.7559 1.77539 39.3469C1.77539 37.548 1.90387 35.8133 2.16085 34.0786C4.70931 16.1752 20.1071 2.40503 38.7172 2.40503C53.7724 2.40503 66.7288 11.421 72.4895 24.356" stroke="#61AAA3" stroke-width="3" stroke-miterlimit="10"/>
<path d="M74.0098 28.3821C74.5023 29.9454 74.8878 31.573 75.1662 33.222" stroke="#61AAA3" stroke-width="3" stroke-miterlimit="10"/>
<path d="M21.9912 23.9705L55.4424 57.4001" stroke="#61AAA3" stroke-width="3" stroke-miterlimit="10"/>
<path d="M21.9912 57.4001L55.4424 23.9705" stroke="#61AAA3" stroke-width="3" stroke-miterlimit="10"/>
</svg>
