<svg width="15" height="15" viewBox="0 0 15 15" fill="none" xmlns="http://www.w3.org/2000/svg">
<path d="M9.40664 3.125C10.0171 3.2441 10.5781 3.54266 11.0179 3.98246C11.4577 4.42226 11.7563 4.98329 11.8754 5.59375M9.40664 0.625C10.6749 0.765898 11.8576 1.33386 12.7605 2.23563C13.6634 3.1374 14.2329 4.31938 14.3754 5.5875M13.7504 10.575V12.45C13.7511 12.6241 13.7154 12.7964 13.6457 12.9558C13.576 13.1153 13.4737 13.2585 13.3454 13.3762C13.2172 13.4938 13.0657 13.5834 12.9009 13.6392C12.736 13.695 12.5612 13.7157 12.3879 13.7C10.4647 13.491 8.61726 12.8338 6.99414 11.7813C5.48403 10.8217 4.20372 9.54136 3.24414 8.03125C2.18787 6.40075 1.53054 4.54437 1.32539 2.6125C1.30977 2.43967 1.33031 2.26548 1.3857 2.10102C1.44109 1.93656 1.53012 1.78543 1.64711 1.65726C1.76411 1.5291 1.90651 1.42669 2.06525 1.35658C2.224 1.28646 2.3956 1.25016 2.56914 1.25H4.44414C4.74745 1.24701 5.04151 1.35442 5.27149 1.55221C5.50147 1.74999 5.65168 2.02465 5.69414 2.325C5.77327 2.92504 5.92004 3.5142 6.13164 4.08125C6.21573 4.30495 6.23392 4.54807 6.18408 4.7818C6.13423 5.01553 6.01842 5.23007 5.85039 5.4L5.05664 6.19375C5.94636 7.75847 7.24192 9.05403 8.80664 9.94375L9.60039 9.15C9.77032 8.98196 9.98486 8.86616 10.2186 8.81631C10.4523 8.76646 10.6954 8.78466 10.9191 8.86875C11.4862 9.08034 12.0753 9.22711 12.6754 9.30625C12.979 9.34908 13.2563 9.502 13.4545 9.73593C13.6527 9.96986 13.758 10.2685 13.7504 10.575Z" stroke="#00898D" stroke-linecap="round" stroke-linejoin="round"/>
</svg>
