<svg width="118" height="45" viewBox="0 0 118 45" fill="none" xmlns="http://www.w3.org/2000/svg">
<g clip-path="url(#clip0_1970_3759)">
<path d="M44.9744 47.5L21 23.5L28.9869 21L34.9721 27L37.4741 25L31.4869 19L35.4741 15.5H42.9741L48.4741 21L51.9741 15.5H58.4741L68.9741 27L69.9741 26L64.9741 20.5L66.4741 14.5H70.9741L75.4741 19L77.9741 14.5L79.4741 14L110.972 47.5H44.9744Z" fill="#F37E29"/>
<path d="M28.6051 20.8324V23.7131H20.6449V20.8324H28.6051ZM31.1726 31V28.3409L37.3857 22.5881C37.9141 22.0767 38.3572 21.6165 38.7152 21.2074C39.0788 20.7983 39.3544 20.3977 39.5419 20.0057C39.7294 19.608 39.8232 19.179 39.8232 18.7188C39.8232 18.2074 39.7067 17.767 39.4737 17.3977C39.2408 17.0227 38.9226 16.7358 38.5192 16.5369C38.1158 16.3324 37.6584 16.2301 37.147 16.2301C36.6129 16.2301 36.147 16.3381 35.7493 16.554C35.3516 16.7699 35.0447 17.0795 34.8288 17.483C34.6129 17.8864 34.505 18.3665 34.505 18.9233L31.0021 18.9233C31.0021 17.7812 31.2607 16.7898 31.7777 15.9489C32.2947 15.108 33.0192 14.4574 33.951 13.9972C34.8828 13.5369 35.9567 13.3068 37.1726 13.3068C38.4226 13.3068 39.5107 13.5284 40.4368 13.9716C41.3686 14.4091 42.093 15.017 42.6101 15.7955C43.1271 16.5739 43.3857 17.4659 43.3857 18.4716C43.3857 19.1307 43.255 19.7812 42.9936 20.4233C42.7379 21.0653 42.2805 21.7784 41.6214 22.5625C40.9624 23.3409 40.0334 24.2756 38.8345 25.3665L36.2862 27.8636V27.983H43.6158V31H31.1726ZM53.1335 31.3835C51.6676 31.3778 50.4063 31.017 49.3494 30.3011C48.2983 29.5852 47.4886 28.5483 46.9205 27.1903C46.358 25.8324 46.0795 24.1989 46.0852 22.2898C46.0852 20.3864 46.3665 18.7642 46.929 17.4233C47.4972 16.0824 48.3068 15.0625 49.358 14.3636C50.4148 13.6591 51.6733 13.3068 53.1335 13.3068C54.5938 13.3068 55.8494 13.6591 56.9006 14.3636C57.9574 15.0682 58.7699 16.0909 59.3381 17.4318C59.9063 18.767 60.1875 20.3864 60.1818 22.2898C60.1818 24.2045 59.8977 25.8409 59.3295 27.1989C58.767 28.5568 57.9602 29.5937 56.9091 30.3097C55.858 31.0256 54.5994 31.3835 53.1335 31.3835ZM53.1335 28.3239C54.1335 28.3239 54.9318 27.821 55.5284 26.8153C56.125 25.8097 56.4205 24.3011 56.4148 22.2898C56.4148 20.9659 56.2784 19.8636 56.0057 18.983C55.7386 18.1023 55.358 17.4403 54.8636 16.9972C54.375 16.554 53.7983 16.3324 53.1335 16.3324C52.1392 16.3324 51.3438 16.8295 50.7472 17.8239C50.1506 18.8182 49.8494 20.3068 49.8438 22.2898C49.8438 23.6307 49.9773 24.75 50.2443 25.6477C50.517 26.5398 50.9006 27.2102 51.3949 27.6591C51.8892 28.1023 52.4688 28.3239 53.1335 28.3239ZM72.3672 27.7273V26.8068C72.3672 26.108 72.5149 25.4659 72.8104 24.8807C73.1115 24.2898 73.5462 23.8182 74.1143 23.4659C74.6882 23.108 75.3871 22.929 76.2109 22.929C77.0462 22.929 77.7479 23.1051 78.3161 23.4574C78.8899 23.8097 79.3217 24.2812 79.6115 24.8722C79.907 25.4574 80.0547 26.1023 80.0547 26.8068V27.7273C80.0547 28.4261 79.907 29.071 79.6115 29.6619C79.3161 30.2472 78.8814 30.7159 78.3075 31.0682C77.7337 31.4261 77.0348 31.6051 76.2109 31.6051C75.3757 31.6051 74.674 31.4261 74.1058 31.0682C73.5376 30.7159 73.1058 30.2472 72.8104 29.6619C72.5149 29.071 72.3672 28.4261 72.3672 27.7273ZM74.8473 26.8068V27.7273C74.8473 28.1307 74.9439 28.5114 75.1371 28.8693C75.3359 29.2273 75.6939 29.4063 76.2109 29.4063C76.728 29.4063 77.0803 29.2301 77.2678 28.8778C77.4609 28.5256 77.5575 28.142 77.5575 27.7273V26.8068C77.5575 26.392 77.4666 26.0057 77.2848 25.6477C77.103 25.2898 76.745 25.1108 76.2109 25.1108C75.6996 25.1108 75.3445 25.2898 75.1456 25.6477C74.9467 26.0057 74.8473 26.392 74.8473 26.8068ZM63.4098 17.7386V16.8182C63.4098 16.1136 63.5604 15.4687 63.8615 14.8835C64.1626 14.2926 64.5973 13.821 65.1655 13.4688C65.7393 13.1165 66.4325 12.9403 67.245 12.9403C68.0859 12.9403 68.7905 13.1165 69.3587 13.4688C69.9268 13.821 70.3587 14.2926 70.6541 14.8835C70.9496 15.4687 71.0973 16.1136 71.0973 16.8182V17.7386C71.0973 18.4432 70.9467 19.0881 70.6456 19.6733C70.3501 20.2585 69.9155 20.7273 69.3416 21.0795C68.7734 21.4261 68.0746 21.5994 67.245 21.5994C66.4155 21.5994 65.7138 21.4233 65.1399 21.071C64.5717 20.7131 64.1399 20.2443 63.8445 19.6648C63.5547 19.0795 63.4098 18.4375 63.4098 17.7386ZM65.907 16.8182V17.7386C65.907 18.1534 66.0036 18.5369 66.1967 18.8892C66.3956 19.2415 66.745 19.4176 67.245 19.4176C67.7678 19.4176 68.1229 19.2415 68.3104 18.8892C68.5036 18.5369 68.6001 18.1534 68.6001 17.7386V16.8182C68.6001 16.4034 68.5092 16.017 68.3274 15.6591C68.1456 15.3011 67.7848 15.1222 67.245 15.1222C66.7393 15.1222 66.3899 15.304 66.1967 15.6676C66.0036 16.0312 65.907 16.4148 65.907 16.8182ZM64.5348 31L76.5348 13.5455H78.7678L66.7678 31H64.5348Z" fill="white"/>
</g>
<defs>
<clipPath id="clip0_1970_3759">
<rect width="118" height="45" fill="white"/>
</clipPath>
</defs>
</svg>
