<svg width="24" height="26" viewBox="0 0 24 26" fill="none" xmlns="http://www.w3.org/2000/svg">
<g filter="url(#filter0_d_882_1175)">
<path d="M19 17L12 12.5556L5 17V2.77778C5 2.30628 5.21071 1.8541 5.58579 1.5207C5.96086 1.1873 6.46957 1 7 1H17C17.5304 1 18.0391 1.1873 18.4142 1.5207C18.7893 1.8541 19 2.30628 19 2.77778V17Z" fill="#FF9D56"/>
<path d="M19 17L12 12.5556L5 17V2.77778C5 2.30628 5.21071 1.8541 5.58579 1.5207C5.96086 1.1873 6.46957 1 7 1H17C17.5304 1 18.0391 1.1873 18.4142 1.5207C18.7893 1.8541 19 2.30628 19 2.77778V17Z" stroke="black" stroke-linecap="round" stroke-linejoin="round"/>
</g>
<defs>
<filter id="filter0_d_882_1175" x="0.5" y="0.5" width="23" height="25" filterUnits="userSpaceOnUse" color-interpolation-filters="sRGB">
<feFlood flood-opacity="0" result="BackgroundImageFix"/>
<feColorMatrix in="SourceAlpha" type="matrix" values="0 0 0 0 0 0 0 0 0 0 0 0 0 0 0 0 0 0 127 0" result="hardAlpha"/>
<feOffset dy="4"/>
<feGaussianBlur stdDeviation="2"/>
<feComposite in2="hardAlpha" operator="out"/>
<feColorMatrix type="matrix" values="0 0 0 0 0 0 0 0 0 0 0 0 0 0 0 0 0 0 0.25 0"/>
<feBlend mode="normal" in2="BackgroundImageFix" result="effect1_dropShadow_882_1175"/>
<feBlend mode="normal" in="SourceGraphic" in2="effect1_dropShadow_882_1175" result="shape"/>
</filter>
</defs>
</svg>
